<?xml version="1.0" encoding="UTF-8" standalone="no"?>
<!-- Created with Inkscape (http://www.inkscape.org/) -->

<svg
   xmlns:dc="http://purl.org/dc/elements/1.1/"
   xmlns:cc="http://creativecommons.org/ns#"
   xmlns:rdf="http://www.w3.org/1999/02/22-rdf-syntax-ns#"
   xmlns:svg="http://www.w3.org/2000/svg"
   xmlns="http://www.w3.org/2000/svg"
   xmlns:sodipodi="http://sodipodi.sourceforge.net/DTD/sodipodi-0.dtd"
   xmlns:inkscape="http://www.inkscape.org/namespaces/inkscape"
   width="20"
   height="20"
   id="svg28946"
   version="1.1"
   inkscape:version="0.48.2 r9819"
   sodipodi:docname="digitalpandahead.svg">
  <defs
     id="defs28948" />
  <sodipodi:namedview
     id="base"
     pagecolor="#ffffff"
     bordercolor="#666666"
     borderopacity="1.0"
     inkscape:pageopacity="0.0"
     inkscape:pageshadow="2"
     inkscape:zoom="11.313709"
     inkscape:cx="-24.665659"
     inkscape:cy="12.204798"
     inkscape:document-units="px"
     inkscape:current-layer="layer1"
     showgrid="false"
     inkscape:window-width="1920"
     inkscape:window-height="1018"
     inkscape:window-x="-8"
     inkscape:window-y="-8"
     inkscape:window-maximized="1" />
  <metadata
     id="metadata28951">
    <rdf:RDF>
      <cc:Work
         rdf:about="">
        <dc:format>image/svg+xml</dc:format>
        <dc:type
           rdf:resource="http://purl.org/dc/dcmitype/StillImage" />
        <dc:title />
      </cc:Work>
    </rdf:RDF>
  </metadata>
  <g
     inkscape:label="Layer 1"
     inkscape:groupmode="layer"
     id="layer1"
     transform="translate(0,-1032.3622)">
    <rect
       style="color:#000000;fill:#ffffff;fill-opacity:1;fill-rule:nonzero;stroke:none;stroke-width:1;marker:none;visibility:visible;display:inline;overflow:visible;enable-background:accumulate"
       id="rect4945"
       width="20"
       height="20"
       x="-1.3190897e-010"
       y="1032.3622"
       rx="3.1708846"
       ry="3.1708846" />
    <g
       id="g4949"
       transform="matrix(0.97951299,0,0,0.97951299,0.01175691,21.503658)">
      <path
         sodipodi:nodetypes="cccscccccccc"
         inkscape:connector-curvature="0"
         id="path4911"
         d="m 8.9404168,1046.3816 -0.5232301,1.6931 -2.4557691,0.2624 c 0,0 -2.7669971,-2.4343 -2.7633334,-2.4493 0.00361,-0.017 2.4785945,2.977 2.5124095,2.9692 0.033826,0 2.9423062,-0.4375 2.9423062,-0.4375 l 2.2723711,1.6772 3.67946,-1.4563 -3.589506,0.7984 -2.1007864,-1.3071 0.3157941,-1.7596 z"
         style="color:#000000;fill:#1a1a1a;fill-opacity:1;fill-rule:nonzero;stroke:none;stroke-width:0.5;marker:none;visibility:visible;display:inline;overflow:visible;enable-background:accumulate" />
      <path
         inkscape:connector-curvature="0"
         id="path4913"
         d="m 3.3139126,1049.5073 -0.6467558,-4.004 5.1833908,-3.7153 -6.99047118,2.5821 0.52781758,3.5412 z"
         style="color:#000000;fill:#cccccc;fill-opacity:1;fill-rule:nonzero;stroke:none;stroke-width:1;marker:none;visibility:visible;display:inline;overflow:visible;enable-background:accumulate" />
      <path
         inkscape:connector-curvature="0"
         id="path4919"
         d="m 9.7809552,1036.7716 3.4067578,0.7001 0.07666,0.2103"
         style="color:#000000;fill:#000000;fill-opacity:1;fill-rule:nonzero;stroke:#000000;stroke-width:0.17555055;stroke-miterlimit:2;stroke-opacity:1;stroke-dasharray:none;stroke-dashoffset:0;marker:none;visibility:visible;display:inline;overflow:visible;enable-background:accumulate" />
      <path
         sodipodi:nodetypes="cccccccc"
         style="color:#000000;fill:#1a1a1a;fill-opacity:1;fill-rule:nonzero;stroke:none;stroke-width:0.33960077;marker:none;visibility:visible;display:inline;overflow:visible;enable-background:accumulate"
         d="m 7.8102287,1033.1703 2.0983099,3.653 -2.0602066,4.9213 -4.386247,1.8599 -2.79666353,-4.6491 1.47320273,-0.8769 2.4332725,-4.5164 z"
         id="path4915"
         inkscape:connector-curvature="0" />
      <path
         sodipodi:nodetypes="cccccccc"
         inkscape:connector-curvature="0"
         id="path4917"
         d="m 16.486007,1035.8534 -3.425126,1.5444 -0.84836,5.4712 3.536731,3.6445 4.239241,-2.8902 -0.523401,-1.3347 -0.28164,-4.601 z"
         style="color:#000000;fill:#1a1a1a;fill-opacity:1;fill-rule:nonzero;stroke:none;stroke-width:0.33960077;marker:none;visibility:visible;display:inline;overflow:visible;enable-background:accumulate" />
      <path
         sodipodi:nodetypes="ccccccc"
         inkscape:connector-curvature="0"
         id="path4921"
         d="m 3.7154629,1043.5087 c 0.9207796,-0.3487 -2.5865205,0.9981 -2.5865205,0.9981 l 0.3015338,3.4904 -0.1479455,-0.1364 -0.70865926,-3.6321 2.94546046,-1.0826 z"
         style="color:#000000;fill:#1a1a1a;fill-opacity:1;fill-rule:nonzero;stroke:none;stroke-width:0.5;marker:none;visibility:visible;display:inline;overflow:visible;enable-background:accumulate" />
      <path
         sodipodi:nodetypes="ccccccc"
         inkscape:connector-curvature="0"
         id="path4923"
         d="m 15.566929,1046.2728 1.530498,2.0912 -1.365197,2.9897 0.196502,-0.044 1.814935,-3.1069 -1.785204,-2.1971 z"
         style="color:#000000;fill:#1a1a1a;fill-opacity:1;fill-rule:nonzero;stroke:none;stroke-width:0.5;marker:none;visibility:visible;display:inline;overflow:visible;enable-background:accumulate" />
      <path
         sodipodi:nodetypes="ccccc"
         inkscape:connector-curvature="0"
         id="path4925"
         d="m 6.7153875,1043.9726 2.7051315,1.0246 2.639751,0.2423 -3.0501029,1.4465 z"
         style="color:#000000;fill:#000000;fill-opacity:1;fill-rule:nonzero;stroke:none;stroke-width:0.5;marker:none;visibility:visible;display:inline;overflow:visible;enable-background:accumulate" />
      <path
         transform="matrix(0.341173,0.08290349,-0.08290349,0.341173,-96.244281,921.15811)"
         d="m 367.8125,254.48718 c 0,3.34823 -2.71427,6.0625 -6.0625,6.0625 -3.34823,0 -6.0625,-2.71427 -6.0625,-6.0625 0,-3.34822 2.71427,-6.0625 6.0625,-6.0625 3.34823,0 6.0625,2.71428 6.0625,6.0625 z"
         sodipodi:ry="6.0625"
         sodipodi:rx="6.0625"
         sodipodi:cy="254.48718"
         sodipodi:cx="361.75"
         id="path4927"
         style="color:#000000;fill:#00aa00;fill-opacity:1;fill-rule:nonzero;stroke:none;stroke-width:0.5;marker:none;visibility:visible;display:inline;overflow:visible;enable-background:accumulate"
         sodipodi:type="arc" />
      <path
         sodipodi:type="arc"
         style="color:#000000;fill:#00aa00;fill-opacity:1;fill-rule:nonzero;stroke:none;stroke-width:0.5;marker:none;visibility:visible;display:inline;overflow:visible;enable-background:accumulate"
         id="path4929"
         sodipodi:cx="361.75"
         sodipodi:cy="254.48718"
         sodipodi:rx="6.0625"
         sodipodi:ry="6.0625"
         d="m 367.8125,254.48718 c 0,3.34823 -2.71427,6.0625 -6.0625,6.0625 -3.34823,0 -6.0625,-2.71427 -6.0625,-6.0625 0,-3.34822 2.71427,-6.0625 6.0625,-6.0625 3.34823,0 6.0625,2.71428 6.0625,6.0625 z"
         transform="matrix(0.341173,0.08290349,-0.08290349,0.341173,-86.627468,923.49495)" />
      <path
         sodipodi:type="arc"
         style="color:#000000;fill:#55d400;fill-opacity:1;fill-rule:nonzero;stroke:none;stroke-width:0.5;marker:none;visibility:visible;display:inline;overflow:visible;enable-background:accumulate"
         id="path4931"
         sodipodi:cx="361.75"
         sodipodi:cy="254.48718"
         sodipodi:rx="6.0625"
         sodipodi:ry="6.0625"
         d="m 367.8125,254.48718 c 0,3.34823 -2.71427,6.0625 -6.0625,6.0625 -3.34823,0 -6.0625,-2.71427 -6.0625,-6.0625 0,-3.34822 2.71427,-6.0625 6.0625,-6.0625 3.34823,0 6.0625,2.71428 6.0625,6.0625 z"
         transform="matrix(0.31091883,0.07555185,-0.07555185,0.31091883,-87.140917,931.36782)" />
      <path
         transform="matrix(0.28665567,0.06965602,-0.06965602,0.28665567,-79.791415,939.63473)"
         d="m 367.8125,254.48718 c 0,3.34823 -2.71427,6.0625 -6.0625,6.0625 -3.34823,0 -6.0625,-2.71427 -6.0625,-6.0625 0,-3.34822 2.71427,-6.0625 6.0625,-6.0625 3.34823,0 6.0625,2.71428 6.0625,6.0625 z"
         sodipodi:ry="6.0625"
         sodipodi:rx="6.0625"
         sodipodi:cy="254.48718"
         sodipodi:cx="361.75"
         id="path4933"
         style="color:#000000;fill:#000000;fill-opacity:1;fill-rule:nonzero;stroke:none;stroke-width:0.5;marker:none;visibility:visible;display:inline;overflow:visible;enable-background:accumulate"
         sodipodi:type="arc" />
      <path
         transform="matrix(0.30295721,0.07671264,-0.07361722,0.31569581,-75.046898,932.11874)"
         d="m 367.8125,254.48718 c 0,3.34823 -2.71427,6.0625 -6.0625,6.0625 -3.34823,0 -6.0625,-2.71427 -6.0625,-6.0625 0,-3.34822 2.71427,-6.0625 6.0625,-6.0625 3.34823,0 6.0625,2.71428 6.0625,6.0625 z"
         sodipodi:ry="6.0625"
         sodipodi:rx="6.0625"
         sodipodi:cy="254.48718"
         sodipodi:cx="361.75"
         id="path4935"
         style="color:#000000;fill:#55d400;fill-opacity:1;fill-rule:nonzero;stroke:none;stroke-width:0.5;marker:none;visibility:visible;display:inline;overflow:visible;enable-background:accumulate"
         sodipodi:type="arc" />
      <path
         sodipodi:type="arc"
         style="color:#000000;fill:#000000;fill-opacity:1;fill-rule:nonzero;stroke:none;stroke-width:0.5;marker:none;visibility:visible;display:inline;overflow:visible;enable-background:accumulate"
         id="path4937"
         sodipodi:cx="361.75"
         sodipodi:cy="254.48718"
         sodipodi:rx="6.0625"
         sodipodi:ry="6.0625"
         d="m 367.8125,254.48718 c 0,3.34823 -2.71427,6.0625 -6.0625,6.0625 -3.34823,0 -6.0625,-2.71427 -6.0625,-6.0625 0,-3.34822 2.71427,-6.0625 6.0625,-6.0625 3.34823,0 6.0625,2.71428 6.0625,6.0625 z"
         transform="matrix(0.28665567,0.06965602,-0.06965602,0.28665567,-70.174598,941.97157)" />
      <path
         inkscape:connector-curvature="0"
         style="color:#000000;fill:#ffffff;fill-opacity:1;fill-rule:nonzero;stroke:none;stroke-width:0.5;marker:none;visibility:visible;display:inline;overflow:visible;enable-background:accumulate"
         d="m 6.8963689,1036.4601 c -0.1570678,-0.038 -0.3072553,0.025 -0.4062412,0.138 -0.066092,-0.066 -0.1507562,-0.115 -0.2484043,-0.1398 -0.2826365,-0.069 -0.5674361,0.1053 -0.6361164,0.3875 -0.068672,0.2825 0.1047672,0.5674 0.3874049,0.6362 0.235536,0.057 0.4714912,-0.063 0.5837036,-0.2647 0.036818,0.023 0.078288,0.041 0.1227483,0.053 0.2237592,0.054 0.4492211,-0.084 0.5035917,-0.3068 0.054372,-0.2238 -0.082939,-0.4491 -0.3066949,-0.5036 z"
         id="path4939" />
      <path
         inkscape:connector-curvature="0"
         id="path4941"
         d="m 16.513184,1038.7968 c -0.157068,-0.038 -0.307258,0.025 -0.40624,0.1381 -0.0661,-0.066 -0.150756,-0.1151 -0.248407,-0.1397 -0.282638,-0.069 -0.567438,0.1052 -0.636117,0.3874 -0.06867,0.2827 0.104767,0.5673 0.387407,0.636 0.235533,0.057 0.47149,-0.062 0.5837,-0.2644 0.03682,0.023 0.07829,0.041 0.122765,0.053 0.223755,0.054 0.449218,-0.084 0.503586,-0.3067 0.05436,-0.2237 -0.08294,-0.4491 -0.306691,-0.5035 z"
         style="color:#000000;fill:#ffffff;fill-opacity:1;fill-rule:nonzero;stroke:none;stroke-width:0.5;marker:none;visibility:visible;display:inline;overflow:visible;enable-background:accumulate" />
    </g>
  </g>
</svg>
