<?xml version="1.0" encoding="UTF-8" standalone="no"?>
<!-- Created with Inkscape (http://www.inkscape.org/) -->

<svg
   xmlns:dc="http://purl.org/dc/elements/1.1/"
   xmlns:cc="http://creativecommons.org/ns#"
   xmlns:rdf="http://www.w3.org/1999/02/22-rdf-syntax-ns#"
   xmlns:svg="http://www.w3.org/2000/svg"
   xmlns="http://www.w3.org/2000/svg"
   xmlns:sodipodi="http://sodipodi.sourceforge.net/DTD/sodipodi-0.dtd"
   xmlns:inkscape="http://www.inkscape.org/namespaces/inkscape"
   width="30"
   height="70"
   id="svg27647"
   version="1.1"
   inkscape:version="0.48.2 r9819"
   sodipodi:docname="digitalpandafull.svg">
  <defs
     id="defs27649">
    <clipPath
       clipPathUnits="userSpaceOnUse"
       id="clipPath23209">
      <path
         style="color:#000000;fill:#999999;fill-opacity:1;fill-rule:nonzero;stroke:#000000;stroke-width:0.34386462;marker:none;visibility:visible;display:inline;overflow:visible;enable-background:accumulate"
         d="m 31.484015,271.9115 c -1.446234,8.22282 -4.780102,3.78459 -8.073292,3.83055 -3.371493,0.0471 -6.3056,4.39227 -8.796336,-3.83055 -1.685011,-5.56283 3.776395,-10.52434 8.434814,-10.52434 4.658419,0 9.441654,4.79977 8.434814,10.52434 z"
         id="path23211"
         inkscape:connector-curvature="0"
         sodipodi:nodetypes="sssss" />
    </clipPath>
    <clipPath
       clipPathUnits="userSpaceOnUse"
       id="clipPath23205">
      <path
         style="color:#000000;fill:#999999;fill-opacity:1;fill-rule:nonzero;stroke:#000000;stroke-width:0.34386462;marker:none;visibility:visible;display:inline;overflow:visible;enable-background:accumulate"
         d="m 31.484015,271.9115 c -1.446234,8.22282 -4.780102,3.78459 -8.073292,3.83055 -3.371493,0.0471 -6.3056,4.39227 -8.796336,-3.83055 -1.685011,-5.56283 3.776395,-10.52434 8.434814,-10.52434 4.658419,0 9.441654,4.79977 8.434814,10.52434 z"
         id="path23207"
         inkscape:connector-curvature="0"
         sodipodi:nodetypes="sssss" />
    </clipPath>
    <clipPath
       clipPathUnits="userSpaceOnUse"
       id="clipPath23201">
      <path
         style="color:#000000;fill:#999999;fill-opacity:1;fill-rule:nonzero;stroke:#000000;stroke-width:0.34386462;marker:none;visibility:visible;display:inline;overflow:visible;enable-background:accumulate"
         d="m 31.484015,271.9115 c -1.446234,8.22282 -4.780102,3.78459 -8.073292,3.83055 -3.371493,0.0471 -6.3056,4.39227 -8.796336,-3.83055 -1.685011,-5.56283 3.776395,-10.52434 8.434814,-10.52434 4.658419,0 9.441654,4.79977 8.434814,10.52434 z"
         id="path23203"
         inkscape:connector-curvature="0"
         sodipodi:nodetypes="sssss" />
    </clipPath>
    <clipPath
       clipPathUnits="userSpaceOnUse"
       id="clipPath23197">
      <path
         style="color:#000000;fill:#999999;fill-opacity:1;fill-rule:nonzero;stroke:#000000;stroke-width:0.34386462;marker:none;visibility:visible;display:inline;overflow:visible;enable-background:accumulate"
         d="m 31.484015,271.9115 c -1.446234,8.22282 -4.780102,3.78459 -8.073292,3.83055 -3.371493,0.0471 -6.3056,4.39227 -8.796336,-3.83055 -1.685011,-5.56283 3.776395,-10.52434 8.434814,-10.52434 4.658419,0 9.441654,4.79977 8.434814,10.52434 z"
         id="path23199"
         inkscape:connector-curvature="0"
         sodipodi:nodetypes="sssss" />
    </clipPath>
    <clipPath
       clipPathUnits="userSpaceOnUse"
       id="clipPath23193">
      <path
         style="color:#000000;fill:#999999;fill-opacity:1;fill-rule:nonzero;stroke:#000000;stroke-width:0.34386462;marker:none;visibility:visible;display:inline;overflow:visible;enable-background:accumulate"
         d="m 31.484015,271.9115 c -1.446234,8.22282 -4.780102,3.78459 -8.073292,3.83055 -3.371493,0.0471 -6.3056,4.39227 -8.796336,-3.83055 -1.685011,-5.56283 3.776395,-10.52434 8.434814,-10.52434 4.658419,0 9.441654,4.79977 8.434814,10.52434 z"
         id="path23195"
         inkscape:connector-curvature="0"
         sodipodi:nodetypes="sssss" />
    </clipPath>
    <clipPath
       clipPathUnits="userSpaceOnUse"
       id="clipPath23189">
      <path
         style="color:#000000;fill:#999999;fill-opacity:1;fill-rule:nonzero;stroke:#000000;stroke-width:0.34386462;marker:none;visibility:visible;display:inline;overflow:visible;enable-background:accumulate"
         d="m 31.484015,271.9115 c -1.446234,8.22282 -4.780102,3.78459 -8.073292,3.83055 -3.371493,0.0471 -6.3056,4.39227 -8.796336,-3.83055 -1.685011,-5.56283 3.776395,-10.52434 8.434814,-10.52434 4.658419,0 9.441654,4.79977 8.434814,10.52434 z"
         id="path23191"
         inkscape:connector-curvature="0"
         sodipodi:nodetypes="sssss" />
    </clipPath>
    <clipPath
       clipPathUnits="userSpaceOnUse"
       id="clipPath23185">
      <path
         style="color:#000000;fill:#999999;fill-opacity:1;fill-rule:nonzero;stroke:#000000;stroke-width:0.34386462;marker:none;visibility:visible;display:inline;overflow:visible;enable-background:accumulate"
         d="m 31.484015,271.9115 c -1.446234,8.22282 -4.780102,3.78459 -8.073292,3.83055 -3.371493,0.0471 -6.3056,4.39227 -8.796336,-3.83055 -1.685011,-5.56283 3.776395,-10.52434 8.434814,-10.52434 4.658419,0 9.441654,4.79977 8.434814,10.52434 z"
         id="path23187"
         inkscape:connector-curvature="0"
         sodipodi:nodetypes="sssss" />
    </clipPath>
    <clipPath
       clipPathUnits="userSpaceOnUse"
       id="clipPath27901">
      <path
         style="color:#000000;fill:#999999;fill-opacity:1;fill-rule:nonzero;stroke:#000000;stroke-width:0.34386462;marker:none;visibility:visible;display:inline;overflow:visible;enable-background:accumulate"
         d="m 31.484015,271.9115 c -1.446234,8.22282 -4.780102,3.78459 -8.073292,3.83055 -3.371493,0.0471 -6.3056,4.39227 -8.796336,-3.83055 -1.685011,-5.56283 3.776395,-10.52434 8.434814,-10.52434 4.658419,0 9.441654,4.79977 8.434814,10.52434 z"
         id="path27903"
         inkscape:connector-curvature="0"
         sodipodi:nodetypes="sssss" />
    </clipPath>
    <clipPath
       clipPathUnits="userSpaceOnUse"
       id="clipPath27905">
      <path
         style="color:#000000;fill:#999999;fill-opacity:1;fill-rule:nonzero;stroke:#000000;stroke-width:0.34386462;marker:none;visibility:visible;display:inline;overflow:visible;enable-background:accumulate"
         d="m 31.484015,271.9115 c -1.446234,8.22282 -4.780102,3.78459 -8.073292,3.83055 -3.371493,0.0471 -6.3056,4.39227 -8.796336,-3.83055 -1.685011,-5.56283 3.776395,-10.52434 8.434814,-10.52434 4.658419,0 9.441654,4.79977 8.434814,10.52434 z"
         id="path27907"
         inkscape:connector-curvature="0"
         sodipodi:nodetypes="sssss" />
    </clipPath>
    <clipPath
       clipPathUnits="userSpaceOnUse"
       id="clipPath27909">
      <path
         style="color:#000000;fill:#999999;fill-opacity:1;fill-rule:nonzero;stroke:#000000;stroke-width:0.34386462;marker:none;visibility:visible;display:inline;overflow:visible;enable-background:accumulate"
         d="m 31.484015,271.9115 c -1.446234,8.22282 -4.780102,3.78459 -8.073292,3.83055 -3.371493,0.0471 -6.3056,4.39227 -8.796336,-3.83055 -1.685011,-5.56283 3.776395,-10.52434 8.434814,-10.52434 4.658419,0 9.441654,4.79977 8.434814,10.52434 z"
         id="path27911"
         inkscape:connector-curvature="0"
         sodipodi:nodetypes="sssss" />
    </clipPath>
    <clipPath
       clipPathUnits="userSpaceOnUse"
       id="clipPath27913">
      <path
         style="color:#000000;fill:#999999;fill-opacity:1;fill-rule:nonzero;stroke:#000000;stroke-width:0.34386462;marker:none;visibility:visible;display:inline;overflow:visible;enable-background:accumulate"
         d="m 31.484015,271.9115 c -1.446234,8.22282 -4.780102,3.78459 -8.073292,3.83055 -3.371493,0.0471 -6.3056,4.39227 -8.796336,-3.83055 -1.685011,-5.56283 3.776395,-10.52434 8.434814,-10.52434 4.658419,0 9.441654,4.79977 8.434814,10.52434 z"
         id="path27915"
         inkscape:connector-curvature="0"
         sodipodi:nodetypes="sssss" />
    </clipPath>
    <clipPath
       clipPathUnits="userSpaceOnUse"
       id="clipPath27917">
      <path
         style="color:#000000;fill:#999999;fill-opacity:1;fill-rule:nonzero;stroke:#000000;stroke-width:0.34386462;marker:none;visibility:visible;display:inline;overflow:visible;enable-background:accumulate"
         d="m 31.484015,271.9115 c -1.446234,8.22282 -4.780102,3.78459 -8.073292,3.83055 -3.371493,0.0471 -6.3056,4.39227 -8.796336,-3.83055 -1.685011,-5.56283 3.776395,-10.52434 8.434814,-10.52434 4.658419,0 9.441654,4.79977 8.434814,10.52434 z"
         id="path27919"
         inkscape:connector-curvature="0"
         sodipodi:nodetypes="sssss" />
    </clipPath>
    <clipPath
       clipPathUnits="userSpaceOnUse"
       id="clipPath27921">
      <path
         style="color:#000000;fill:#999999;fill-opacity:1;fill-rule:nonzero;stroke:#000000;stroke-width:0.34386462;marker:none;visibility:visible;display:inline;overflow:visible;enable-background:accumulate"
         d="m 31.484015,271.9115 c -1.446234,8.22282 -4.780102,3.78459 -8.073292,3.83055 -3.371493,0.0471 -6.3056,4.39227 -8.796336,-3.83055 -1.685011,-5.56283 3.776395,-10.52434 8.434814,-10.52434 4.658419,0 9.441654,4.79977 8.434814,10.52434 z"
         id="path27923"
         inkscape:connector-curvature="0"
         sodipodi:nodetypes="sssss" />
    </clipPath>
    <clipPath
       clipPathUnits="userSpaceOnUse"
       id="clipPath27925">
      <path
         style="color:#000000;fill:#999999;fill-opacity:1;fill-rule:nonzero;stroke:#000000;stroke-width:0.34386462;marker:none;visibility:visible;display:inline;overflow:visible;enable-background:accumulate"
         d="m 31.484015,271.9115 c -1.446234,8.22282 -4.780102,3.78459 -8.073292,3.83055 -3.371493,0.0471 -6.3056,4.39227 -8.796336,-3.83055 -1.685011,-5.56283 3.776395,-10.52434 8.434814,-10.52434 4.658419,0 9.441654,4.79977 8.434814,10.52434 z"
         id="path27927"
         inkscape:connector-curvature="0"
         sodipodi:nodetypes="sssss" />
    </clipPath>
  </defs>
  <sodipodi:namedview
     id="base"
     pagecolor="#ffffff"
     bordercolor="#666666"
     borderopacity="1.0"
     inkscape:pageopacity="0.0"
     inkscape:pageshadow="2"
     inkscape:zoom="1"
     inkscape:cx="-9.4148948"
     inkscape:cy="26.900629"
     inkscape:document-units="px"
     inkscape:current-layer="layer1"
     showgrid="false"
     inkscape:window-width="1920"
     inkscape:window-height="1018"
     inkscape:window-x="-8"
     inkscape:window-y="-8"
     inkscape:window-maximized="1" />
  <metadata
     id="metadata27652">
    <rdf:RDF>
      <cc:Work
         rdf:about="">
        <dc:format>image/svg+xml</dc:format>
        <dc:type
           rdf:resource="http://purl.org/dc/dcmitype/StillImage" />
        <dc:title></dc:title>
      </cc:Work>
    </rdf:RDF>
  </metadata>
  <g
     inkscape:label="Layer 1"
     inkscape:groupmode="layer"
     id="layer1"
     transform="translate(0,-982.36217)">
    <rect
       y="982.33997"
       x="-0.0039607142"
       height="70.024231"
       width="30"
       id="rect27274"
       style="color:#000000;fill:#5aa02c;fill-opacity:1;fill-rule:nonzero;stroke:none;stroke-width:1;marker:none;visibility:visible;display:inline;overflow:visible;enable-background:accumulate" />
    <g
       transform="matrix(0.14739496,0,0,0.14739496,-5.4071621,998.04913)"
       id="g28500">
      <g
         id="g28504"
         transform="matrix(1.5402713,0,0,1.5402713,-209.74549,-971.33506)">
        <path
           transform="matrix(1.3848964,0.33652353,-0.33652353,1.3848964,-147.01678,400.58499)"
           d="m 314.5,203.23718 c 0,8.76752 -7.10748,15.875 -15.875,15.875 -8.76752,0 -15.875,-7.10748 -15.875,-15.875 0,-8.76752 7.10748,-15.875 15.875,-15.875 8.76752,0 15.875,7.10748 15.875,15.875 z"
           sodipodi:ry="15.875"
           sodipodi:rx="15.875"
           sodipodi:cy="203.23718"
           sodipodi:cx="298.625"
           id="path28524"
           style="color:#000000;fill:#333333;fill-opacity:1;fill-rule:nonzero;stroke:#000000;stroke-width:0.70165747;stroke-miterlimit:4;stroke-dasharray:none;marker:none;visibility:visible;display:inline;overflow:visible;enable-background:accumulate"
           sodipodi:type="arc" />
        <path
           transform="matrix(1.0692479,0.25982238,-0.25982238,1.0692479,-64.986,493.03309)"
           d="m 314.5,203.23718 c 0,8.76752 -7.10748,15.875 -15.875,15.875 -8.76752,0 -15.875,-7.10748 -15.875,-15.875 0,-8.76752 7.10748,-15.875 15.875,-15.875 8.76752,0 15.875,7.10748 15.875,15.875 z"
           sodipodi:ry="15.875"
           sodipodi:rx="15.875"
           sodipodi:cy="203.23718"
           sodipodi:cx="298.625"
           id="path28526"
           style="color:#000000;fill:#1a1a1a;fill-opacity:1;fill-rule:nonzero;stroke:#000000;stroke-width:0.35082871;stroke-miterlimit:4;stroke-dasharray:none;marker:none;visibility:visible;display:inline;overflow:visible;enable-background:accumulate"
           sodipodi:type="arc" />
        <g
           transform="matrix(0.97172287,0.23612424,-0.23612424,0.97172287,29.27824,541.45044)"
           id="g28528">
          <path
             inkscape:connector-curvature="0"
             id="path28530"
             d="m 223.23191,181.68175 9.6148,8.1241"
             style="color:#000000;fill:#333333;fill-opacity:1;fill-rule:nonzero;stroke:#000000;stroke-width:0.30000001;stroke-miterlimit:4;stroke-opacity:1;stroke-dasharray:none;stroke-dashoffset:0;marker:none;visibility:visible;display:inline;overflow:visible;enable-background:accumulate" />
          <path
             style="color:#000000;fill:#333333;fill-opacity:1;fill-rule:nonzero;stroke:#000000;stroke-width:0.30000001;stroke-miterlimit:4;stroke-opacity:1;stroke-dasharray:none;stroke-dashoffset:0;marker:none;visibility:visible;display:inline;overflow:visible;enable-background:accumulate"
             d="m 219.34503,182.62623 9.6148,8.1241"
             id="path28532"
             inkscape:connector-curvature="0" />
          <path
             inkscape:connector-curvature="0"
             id="path28534"
             d="m 215.69427,184.54243 9.6148,8.1241"
             style="color:#000000;fill:#333333;fill-opacity:1;fill-rule:nonzero;stroke:#000000;stroke-width:0.30000001;stroke-miterlimit:4;stroke-opacity:1;stroke-dasharray:none;stroke-dashoffset:0;marker:none;visibility:visible;display:inline;overflow:visible;enable-background:accumulate" />
          <path
             inkscape:connector-curvature="0"
             id="path28536"
             d="m 213.03382,186.86051 9.6148,8.1241"
             style="color:#000000;fill:#333333;fill-opacity:1;fill-rule:nonzero;stroke:#000000;stroke-width:0.30000001;stroke-miterlimit:4;stroke-opacity:1;stroke-dasharray:none;stroke-dashoffset:0;marker:none;visibility:visible;display:inline;overflow:visible;enable-background:accumulate" />
          <path
             inkscape:connector-curvature="0"
             id="path28538"
             d="m 210.7961,189.72376 9.6148,8.1241"
             style="color:#000000;fill:#333333;fill-opacity:1;fill-rule:nonzero;stroke:#000000;stroke-width:0.30000001;stroke-miterlimit:4;stroke-opacity:1;stroke-dasharray:none;stroke-dashoffset:0;marker:none;visibility:visible;display:inline;overflow:visible;enable-background:accumulate" />
          <path
             inkscape:connector-curvature="0"
             id="path28540"
             d="m 208.88609,193.28054 9.6148,8.1241"
             style="color:#000000;fill:#333333;fill-opacity:1;fill-rule:nonzero;stroke:#000000;stroke-width:0.30000001;stroke-miterlimit:4;stroke-opacity:1;stroke-dasharray:none;stroke-dashoffset:0;marker:none;visibility:visible;display:inline;overflow:visible;enable-background:accumulate" />
          <path
             style="color:#000000;fill:#333333;fill-opacity:1;fill-rule:nonzero;stroke:#000000;stroke-width:0.30000001;stroke-miterlimit:4;stroke-opacity:1;stroke-dasharray:none;stroke-dashoffset:0;marker:none;visibility:visible;display:inline;overflow:visible;enable-background:accumulate"
             d="m 208.12776,197.73995 9.6148,8.1241"
             id="path28542"
             inkscape:connector-curvature="0" />
        </g>
        <g
           transform="matrix(0.97172287,0.23612424,-0.23612424,0.97172287,29.27824,541.45044)"
           id="g28544">
          <path
             inkscape:connector-curvature="0"
             id="path28546"
             d="m 223.23191,181.68175 9.6148,8.1241"
             style="color:#000000;fill:#333333;fill-opacity:1;fill-rule:nonzero;stroke:#000000;stroke-width:0.30000001;stroke-miterlimit:4;stroke-opacity:1;stroke-dasharray:none;stroke-dashoffset:0;marker:none;visibility:visible;display:inline;overflow:visible;enable-background:accumulate" />
          <path
             style="color:#000000;fill:#333333;fill-opacity:1;fill-rule:nonzero;stroke:#000000;stroke-width:0.30000001;stroke-miterlimit:4;stroke-opacity:1;stroke-dasharray:none;stroke-dashoffset:0;marker:none;visibility:visible;display:inline;overflow:visible;enable-background:accumulate"
             d="m 219.34503,182.62623 9.6148,8.1241"
             id="path28548"
             inkscape:connector-curvature="0" />
          <path
             inkscape:connector-curvature="0"
             id="path28550"
             d="m 215.69427,184.54243 9.6148,8.1241"
             style="color:#000000;fill:#333333;fill-opacity:1;fill-rule:nonzero;stroke:#000000;stroke-width:0.30000001;stroke-miterlimit:4;stroke-opacity:1;stroke-dasharray:none;stroke-dashoffset:0;marker:none;visibility:visible;display:inline;overflow:visible;enable-background:accumulate" />
          <path
             inkscape:connector-curvature="0"
             id="path28552"
             d="m 213.03382,186.86051 9.6148,8.1241"
             style="color:#000000;fill:#333333;fill-opacity:1;fill-rule:nonzero;stroke:#000000;stroke-width:0.30000001;stroke-miterlimit:4;stroke-opacity:1;stroke-dasharray:none;stroke-dashoffset:0;marker:none;visibility:visible;display:inline;overflow:visible;enable-background:accumulate" />
          <path
             inkscape:connector-curvature="0"
             id="path28554"
             d="m 210.7961,189.72376 9.6148,8.1241"
             style="color:#000000;fill:#333333;fill-opacity:1;fill-rule:nonzero;stroke:#000000;stroke-width:0.30000001;stroke-miterlimit:4;stroke-opacity:1;stroke-dasharray:none;stroke-dashoffset:0;marker:none;visibility:visible;display:inline;overflow:visible;enable-background:accumulate" />
          <path
             inkscape:connector-curvature="0"
             id="path28556"
             d="m 208.88609,193.28054 9.6148,8.1241"
             style="color:#000000;fill:#333333;fill-opacity:1;fill-rule:nonzero;stroke:#000000;stroke-width:0.30000001;stroke-miterlimit:4;stroke-opacity:1;stroke-dasharray:none;stroke-dashoffset:0;marker:none;visibility:visible;display:inline;overflow:visible;enable-background:accumulate" />
          <path
             style="color:#000000;fill:#333333;fill-opacity:1;fill-rule:nonzero;stroke:#000000;stroke-width:0.30000001;stroke-miterlimit:4;stroke-opacity:1;stroke-dasharray:none;stroke-dashoffset:0;marker:none;visibility:visible;display:inline;overflow:visible;enable-background:accumulate"
             d="m 208.12776,197.73995 9.6148,8.1241"
             id="path28558"
             inkscape:connector-curvature="0" />
        </g>
        <path
           transform="matrix(1.3848964,0.33652353,-0.33652353,1.3848964,-91.60135,418.16709)"
           d="m 314.5,203.23718 c 0,8.76752 -7.10748,15.875 -15.875,15.875 -8.76752,0 -15.875,-7.10748 -15.875,-15.875 0,-8.76752 7.10748,-15.875 15.875,-15.875 8.76752,0 15.875,7.10748 15.875,15.875 z"
           sodipodi:ry="15.875"
           sodipodi:rx="15.875"
           sodipodi:cy="203.23718"
           sodipodi:cx="298.625"
           id="path28560"
           style="color:#000000;fill:#333333;fill-opacity:1;fill-rule:nonzero;stroke:#000000;stroke-width:0.70165747;stroke-miterlimit:4;stroke-dasharray:none;marker:none;visibility:visible;display:inline;overflow:visible;enable-background:accumulate"
           sodipodi:type="arc" />
        <path
           sodipodi:type="arc"
           style="color:#000000;fill:#1a1a1a;fill-opacity:1;fill-rule:nonzero;stroke:#000000;stroke-width:0.35082871;stroke-miterlimit:4;stroke-dasharray:none;marker:none;visibility:visible;display:inline;overflow:visible;enable-background:accumulate"
           id="path28562"
           sodipodi:cx="298.625"
           sodipodi:cy="203.23718"
           sodipodi:rx="15.875"
           sodipodi:ry="15.875"
           d="m 314.5,203.23718 c 0,8.76752 -7.10748,15.875 -15.875,15.875 -8.76752,0 -15.875,-7.10748 -15.875,-15.875 0,-8.76752 7.10748,-15.875 15.875,-15.875 8.76752,0 15.875,7.10748 15.875,15.875 z"
           transform="matrix(1.0692479,0.25982238,-0.25982238,1.0692479,-16.19564,506.73328)" />
        <g
           transform="matrix(-0.51616434,0.85648956,-0.85648956,-0.51616434,537.03372,711.14382)"
           id="g28564">
          <path
             style="color:#000000;fill:#333333;fill-opacity:1;fill-rule:nonzero;stroke:#000000;stroke-width:0.30000001;stroke-miterlimit:4;stroke-opacity:1;stroke-dasharray:none;stroke-dashoffset:0;marker:none;visibility:visible;display:inline;overflow:visible;enable-background:accumulate"
             d="m 223.23191,181.68175 9.6148,8.1241"
             id="path28566"
             inkscape:connector-curvature="0" />
          <path
             inkscape:connector-curvature="0"
             id="path28568"
             d="m 219.34503,182.62623 9.6148,8.1241"
             style="color:#000000;fill:#333333;fill-opacity:1;fill-rule:nonzero;stroke:#000000;stroke-width:0.30000001;stroke-miterlimit:4;stroke-opacity:1;stroke-dasharray:none;stroke-dashoffset:0;marker:none;visibility:visible;display:inline;overflow:visible;enable-background:accumulate" />
          <path
             style="color:#000000;fill:#333333;fill-opacity:1;fill-rule:nonzero;stroke:#000000;stroke-width:0.30000001;stroke-miterlimit:4;stroke-opacity:1;stroke-dasharray:none;stroke-dashoffset:0;marker:none;visibility:visible;display:inline;overflow:visible;enable-background:accumulate"
             d="m 215.69427,184.54243 9.6148,8.1241"
             id="path28570"
             inkscape:connector-curvature="0" />
          <path
             style="color:#000000;fill:#333333;fill-opacity:1;fill-rule:nonzero;stroke:#000000;stroke-width:0.30000001;stroke-miterlimit:4;stroke-opacity:1;stroke-dasharray:none;stroke-dashoffset:0;marker:none;visibility:visible;display:inline;overflow:visible;enable-background:accumulate"
             d="m 213.03382,186.86051 9.6148,8.1241"
             id="path28572"
             inkscape:connector-curvature="0" />
          <path
             style="color:#000000;fill:#333333;fill-opacity:1;fill-rule:nonzero;stroke:#000000;stroke-width:0.30000001;stroke-miterlimit:4;stroke-opacity:1;stroke-dasharray:none;stroke-dashoffset:0;marker:none;visibility:visible;display:inline;overflow:visible;enable-background:accumulate"
             d="m 210.7961,189.72376 9.6148,8.1241"
             id="path28574"
             inkscape:connector-curvature="0" />
          <path
             style="color:#000000;fill:#333333;fill-opacity:1;fill-rule:nonzero;stroke:#000000;stroke-width:0.30000001;stroke-miterlimit:4;stroke-opacity:1;stroke-dasharray:none;stroke-dashoffset:0;marker:none;visibility:visible;display:inline;overflow:visible;enable-background:accumulate"
             d="m 208.88609,193.28054 9.6148,8.1241"
             id="path28576"
             inkscape:connector-curvature="0" />
          <path
             inkscape:connector-curvature="0"
             id="path28578"
             d="m 208.12776,197.73995 9.6148,8.1241"
             style="color:#000000;fill:#333333;fill-opacity:1;fill-rule:nonzero;stroke:#000000;stroke-width:0.30000001;stroke-miterlimit:4;stroke-opacity:1;stroke-dasharray:none;stroke-dashoffset:0;marker:none;visibility:visible;display:inline;overflow:visible;enable-background:accumulate" />
        </g>
        <path
           transform="matrix(-0.97172287,-0.23612424,-0.23612424,0.97172287,681.64417,668.73241)"
           d="m 457.14452,248.73532 c 0,23.62672 -19.15324,42.77996 -42.77996,42.77996 -23.62672,0 -42.77996,-19.15324 -42.77996,-42.77996 0,-23.62672 19.15324,-42.77996 42.77996,-42.77996 23.62672,0 42.77996,19.15324 42.77996,42.77996 z"
           sodipodi:ry="42.779961"
           sodipodi:rx="42.779961"
           sodipodi:cy="248.73532"
           sodipodi:cx="414.36456"
           id="path28580"
           style="color:#000000;fill:#ffffff;fill-opacity:1;fill-rule:nonzero;stroke:none;stroke-width:1;marker:none;visibility:visible;display:inline;overflow:visible;enable-background:accumulate"
           sodipodi:type="arc" />
        <path
           style="color:#000000;fill:#cccccc;fill-opacity:1;fill-rule:nonzero;stroke:none;stroke-width:1;marker:none;visibility:visible;display:inline;overflow:visible;enable-background:accumulate"
           d="m 219.49193,770.3118 c -18.76891,0.25328 -35.72207,13.15938 -40.35919,32.30263 -5.49583,22.6883 8.38351,45.53488 31.00053,51.04804 5.91058,1.44077 11.83266,1.54857 17.45512,0.52499 -41.28781,-1.3485 -47.97598,-30.63935 -43.32376,-52.01389 4.05177,-16.72683 18.57942,-30.11491 37.96716,-31.80001 -0.91704,-0.048 -1.83018,-0.074 -2.73986,-0.0618 z"
           id="path28582"
           inkscape:connector-curvature="0"
           sodipodi:nodetypes="cssccccc" />
        <path
           sodipodi:nodetypes="cccscccccccc"
           inkscape:connector-curvature="0"
           id="path28584"
           d="m 213.08159,837.01275 -1.64551,5.32504 -7.72318,0.82447 c 0,0 -8.70196,-7.65497 -8.69044,-7.70239 0.0115,-0.0474 7.79496,9.36268 7.90131,9.33831 0.10637,-0.0244 9.25329,-1.3764 9.25329,-1.3764 l 7.14641,5.27461 11.57158,-4.57976 -11.28868,2.51089 -6.60679,-4.11068 0.99314,-5.53379 z"
           style="color:#000000;fill:#1a1a1a;fill-opacity:1;fill-rule:nonzero;stroke:none;stroke-width:0.5;marker:none;visibility:visible;display:inline;overflow:visible;enable-background:accumulate" />
        <path
           inkscape:connector-curvature="0"
           id="path28586"
           d="m 195.38673,846.84306 -2.03399,-12.59199 16.30131,-11.68406 -21.98442,8.12003 1.65994,11.13669 z"
           style="color:#000000;fill:#cccccc;fill-opacity:1;fill-rule:nonzero;stroke:none;stroke-width:1;marker:none;visibility:visible;display:inline;overflow:visible;enable-background:accumulate" />
        <path
           sodipodi:nodetypes="cccccccc"
           style="color:#000000;fill:#1a1a1a;fill-opacity:1;fill-rule:nonzero;stroke:none;stroke-width:0.33960077;marker:none;visibility:visible;display:inline;overflow:visible;enable-background:accumulate"
           d="m 209.52725,795.46473 6.599,11.48841 -6.47917,15.477 -13.79436,5.84911 -8.79526,-14.62093 4.63309,-2.75807 7.65243,-14.20342 z"
           id="path28588"
           inkscape:connector-curvature="0" />
        <path
           sodipodi:nodetypes="cccccccc"
           inkscape:connector-curvature="0"
           id="path28590"
           d="m 236.81181,803.90262 -10.77172,4.85691 -2.66802,17.20659 11.12271,11.46153 13.33204,-9.08953 -1.64605,-4.197 -0.88573,-14.47029 z"
           style="color:#000000;fill:#1a1a1a;fill-opacity:1;fill-rule:nonzero;stroke:none;stroke-width:0.33960077;marker:none;visibility:visible;display:inline;overflow:visible;enable-background:accumulate" />
        <path
           inkscape:connector-curvature="0"
           id="path28592"
           d="m 215.864,806.7558 10.71395,2.2017 0.24107,0.6612"
           style="color:#000000;fill:#000000;fill-opacity:1;fill-rule:nonzero;stroke:#000000;stroke-width:0.55209106;stroke-miterlimit:2;stroke-opacity:1;stroke-dasharray:none;stroke-dashoffset:0;marker:none;visibility:visible;display:inline;overflow:visible;enable-background:accumulate" />
        <path
           sodipodi:nodetypes="ccccccc"
           inkscape:connector-curvature="0"
           id="path28594"
           d="m 196.64957,827.97825 c 2.89577,-1.09727 -8.13438,3.13872 -8.13438,3.13872 l 0.9483,10.97719 -0.46526,-0.43099 -2.22867,-11.42234 9.26321,-3.40447 z"
           style="color:#000000;fill:#1a1a1a;fill-opacity:1;fill-rule:nonzero;stroke:none;stroke-width:0.5;marker:none;visibility:visible;display:inline;overflow:visible;enable-background:accumulate" />
        <path
           sodipodi:nodetypes="ccccccc"
           inkscape:connector-curvature="0"
           id="path28596"
           d="m 233.92139,836.67123 4.81328,6.57661 -4.29342,9.40216 0.61798,-0.14128 5.70781,-9.77139 -5.61431,-6.90955 z"
           style="color:#000000;fill:#1a1a1a;fill-opacity:1;fill-rule:nonzero;stroke:none;stroke-width:0.5;marker:none;visibility:visible;display:inline;overflow:visible;enable-background:accumulate" />
        <path
           sodipodi:nodetypes="ccccc"
           inkscape:connector-curvature="0"
           id="path28598"
           d="m 206.08407,829.43682 8.5074,3.22229 8.30179,0.76184 -9.59231,4.54903 z"
           style="color:#000000;fill:#000000;fill-opacity:1;fill-rule:nonzero;stroke:none;stroke-width:0.5;marker:none;visibility:visible;display:inline;overflow:visible;enable-background:accumulate" />
        <path
           transform="matrix(1.0729591,0.26072418,-0.26072418,1.0729591,-117.71503,443.19618)"
           d="m 367.8125,254.48718 c 0,3.34823 -2.71427,6.0625 -6.0625,6.0625 -3.34823,0 -6.0625,-2.71427 -6.0625,-6.0625 0,-3.34822 2.71427,-6.0625 6.0625,-6.0625 3.34823,0 6.0625,2.71428 6.0625,6.0625 z"
           sodipodi:ry="6.0625"
           sodipodi:rx="6.0625"
           sodipodi:cy="254.48718"
           sodipodi:cx="361.75"
           id="path28600"
           style="color:#000000;fill:#00aa00;fill-opacity:1;fill-rule:nonzero;stroke:none;stroke-width:0.5;marker:none;visibility:visible;display:inline;overflow:visible;enable-background:accumulate"
           sodipodi:type="arc" />
        <path
           sodipodi:type="arc"
           style="color:#000000;fill:#00aa00;fill-opacity:1;fill-rule:nonzero;stroke:none;stroke-width:0.5;marker:none;visibility:visible;display:inline;overflow:visible;enable-background:accumulate"
           id="path28602"
           sodipodi:cx="361.75"
           sodipodi:cy="254.48718"
           sodipodi:rx="6.0625"
           sodipodi:ry="6.0625"
           d="m 367.8125,254.48718 c 0,3.34823 -2.71427,6.0625 -6.0625,6.0625 -3.34823,0 -6.0625,-2.71427 -6.0625,-6.0625 0,-3.34822 2.71427,-6.0625 6.0625,-6.0625 3.34823,0 6.0625,2.71428 6.0625,6.0625 z"
           transform="matrix(1.0729591,0.26072418,-0.26072418,1.0729591,-87.471,450.54534)" />
        <path
           sodipodi:type="arc"
           style="color:#000000;fill:#55d400;fill-opacity:1;fill-rule:nonzero;stroke:none;stroke-width:0.5;marker:none;visibility:visible;display:inline;overflow:visible;enable-background:accumulate"
           id="path28604"
           sodipodi:cx="361.75"
           sodipodi:cy="254.48718"
           sodipodi:rx="6.0625"
           sodipodi:ry="6.0625"
           d="m 367.8125,254.48718 c 0,3.34823 -2.71427,6.0625 -6.0625,6.0625 -3.34823,0 -6.0625,-2.71427 -6.0625,-6.0625 0,-3.34822 2.71427,-6.0625 6.0625,-6.0625 3.34823,0 6.0625,2.71428 6.0625,6.0625 z"
           transform="matrix(0.97781238,0.23760396,-0.23760396,0.97781238,-89.085754,475.30479)" />
        <path
           transform="matrix(0.90150684,0.21906206,-0.21906206,0.90150684,-65.97221,501.30351)"
           d="m 367.8125,254.48718 c 0,3.34823 -2.71427,6.0625 -6.0625,6.0625 -3.34823,0 -6.0625,-2.71427 -6.0625,-6.0625 0,-3.34822 2.71427,-6.0625 6.0625,-6.0625 3.34823,0 6.0625,2.71428 6.0625,6.0625 z"
           sodipodi:ry="6.0625"
           sodipodi:rx="6.0625"
           sodipodi:cy="254.48718"
           sodipodi:cx="361.75"
           id="path28606"
           style="color:#000000;fill:#000000;fill-opacity:1;fill-rule:nonzero;stroke:none;stroke-width:0.5;marker:none;visibility:visible;display:inline;overflow:visible;enable-background:accumulate"
           sodipodi:type="arc" />
        <path
           transform="matrix(0.95277377,0.24125452,-0.23151969,0.99283553,-51.051125,477.6664)"
           d="m 367.8125,254.48718 c 0,3.34823 -2.71427,6.0625 -6.0625,6.0625 -3.34823,0 -6.0625,-2.71427 -6.0625,-6.0625 0,-3.34822 2.71427,-6.0625 6.0625,-6.0625 3.34823,0 6.0625,2.71428 6.0625,6.0625 z"
           sodipodi:ry="6.0625"
           sodipodi:rx="6.0625"
           sodipodi:cy="254.48718"
           sodipodi:cx="361.75"
           id="path28608"
           style="color:#000000;fill:#55d400;fill-opacity:1;fill-rule:nonzero;stroke:none;stroke-width:0.5;marker:none;visibility:visible;display:inline;overflow:visible;enable-background:accumulate"
           sodipodi:type="arc" />
        <path
           sodipodi:type="arc"
           style="color:#000000;fill:#000000;fill-opacity:1;fill-rule:nonzero;stroke:none;stroke-width:0.5;marker:none;visibility:visible;display:inline;overflow:visible;enable-background:accumulate"
           id="path28610"
           sodipodi:cx="361.75"
           sodipodi:cy="254.48718"
           sodipodi:rx="6.0625"
           sodipodi:ry="6.0625"
           d="m 367.8125,254.48718 c 0,3.34823 -2.71427,6.0625 -6.0625,6.0625 -3.34823,0 -6.0625,-2.71427 -6.0625,-6.0625 0,-3.34822 2.71427,-6.0625 6.0625,-6.0625 3.34823,0 6.0625,2.71428 6.0625,6.0625 z"
           transform="matrix(0.90150684,0.21906206,-0.21906206,0.90150684,-35.72817,508.65267)" />
        <path
           inkscape:connector-curvature="0"
           style="color:#000000;fill:#ffffff;fill-opacity:1;fill-rule:nonzero;stroke:none;stroke-width:0.5;marker:none;visibility:visible;display:inline;overflow:visible;enable-background:accumulate"
           d="m 206.65324,805.81057 c -0.49394,-0.12002 -0.96629,0.0757 -1.27759,0.43526 -0.20788,-0.20858 -0.4741,-0.36378 -0.78121,-0.4384 -0.88887,-0.21599 -1.78454,0.32948 -2.00053,1.21835 -0.21599,0.88887 0.32949,1.78454 1.21835,2.00053 0.74074,0.17999 1.4828,-0.19663 1.8357,-0.8323 0.11578,0.0722 0.24622,0.13085 0.38606,0.16483 0.7037,0.17099 1.41276,-0.26084 1.58375,-0.96453 0.171,-0.70369 -0.26083,-1.41276 -0.96453,-1.58375 z"
           id="path28612" />
        <path
           inkscape:connector-curvature="0"
           id="path28614"
           d="m 236.89728,813.15973 c -0.49394,-0.12002 -0.9663,0.0757 -1.27759,0.43526 -0.20789,-0.20858 -0.4741,-0.36377 -0.78122,-0.4384 -0.88887,-0.21599 -1.78454,0.32949 -2.00053,1.21835 -0.21599,0.88887 0.32949,1.78454 1.21836,2.00053 0.74073,0.17999 1.4828,-0.19662 1.83569,-0.83229 0.11577,0.0722 0.24623,0.13084 0.38607,0.16482 0.70369,0.17099 1.41275,-0.26084 1.58374,-0.96452 0.171,-0.7037 -0.26084,-1.41276 -0.96452,-1.58376 z"
           style="color:#000000;fill:#ffffff;fill-opacity:1;fill-rule:nonzero;stroke:none;stroke-width:0.5;marker:none;visibility:visible;display:inline;overflow:visible;enable-background:accumulate" />
        <path
           style="color:#000000;fill:none;stroke:#cccccc;stroke-width:0.60137123;marker:none;visibility:visible;display:inline;overflow:visible;enable-background:accumulate"
           d="m 254.58439,837.66025 c -1.64369,-3.25516 -3.3902,-7.41967 -4.56876,-11.309 -4.48268,-14.79308 -3.9638,-31.40462 0.079,-43.91823"
           id="path28790"
           inkscape:connector-curvature="0"
           sodipodi:nodetypes="csc" />
        <path
           style="color:#000000;fill:none;stroke:#cccccc;stroke-width:0.60137129;marker:none;visibility:visible;display:inline;overflow:visible;enable-background:accumulate"
           d="m 205.54405,773.85339 c -0.79201,4.86403 -2.32338,10.02031 -4.64093,15.29553 -5.11653,11.64625 -13.12984,21.74366 -22.05485,28.78583"
           id="path28792"
           inkscape:connector-curvature="0"
           sodipodi:nodetypes="csc" />
        <path
           sodipodi:type="arc"
           style="color:#000000;fill:none;stroke:none;stroke-width:1;marker:none;visibility:visible;display:inline;overflow:visible;enable-background:accumulate"
           id="path28816"
           sodipodi:cx="414.36456"
           sodipodi:cy="248.73532"
           sodipodi:rx="42.779961"
           sodipodi:ry="42.779961"
           d="m 457.14452,248.73532 c 0,23.62672 -19.15324,42.77996 -42.77996,42.77996 -23.62672,0 -42.77996,-19.15324 -42.77996,-42.77996 0,-23.62672 19.15324,-42.77996 42.77996,-42.77996 23.62672,0 42.77996,19.15324 42.77996,42.77996 z"
           transform="matrix(-0.97172287,-0.23612424,-0.23612424,0.97172287,681.64417,668.73241)" />
      </g>
    </g>
    <g
       id="g26400"
       transform="matrix(0.19345521,0,0,0.19345521,40.581562,983.17371)">
      <g
         transform="translate(-89.024386,-567.10408)"
         id="g25074" />
    </g>
    <g
       transform="matrix(0,-1.1065083,1.1065083,0,-1.5655636,-104.73921)"
       style="font-size:14.16021442px;font-style:normal;font-variant:normal;font-weight:normal;font-stretch:normal;text-align:start;line-height:93.00000072%;writing-mode:lr-tb;text-anchor:start;color:#000000;fill:#333333;fill-opacity:1;fill-rule:nonzero;stroke:none;stroke-width:0.5;marker:none;visibility:visible;display:inline;overflow:visible;enable-background:accumulate;font-family:Bimini;-inkscape-font-specification:Bimini"
       id="text27293">
      <path
         d="m -1017.0455,13.228156 0,-6.8194985 1.7999,0 c 0.8105,6.8e-6 1.5307,0.2754459 2.1607,0.8263181 0.725,0.6426972 1.0876,1.4895932 1.0876,2.5406906 0,0.8801418 -0.2533,1.6478888 -0.7599,2.3032428 -0.5888,0.766165 -1.4057,1.149247 -2.4504,1.149247 l -0.5509,0 0,-0.878556 0.6316,0 c 0.6459,0 1.1825,-0.294434 1.6099,-0.883306 0.3736,-0.519217 0.5604,-1.082759 0.5604,-1.6906278 0,-0.715505 -0.2248,-1.3059577 -0.6744,-1.77136 -0.4812,-0.4938855 -1.1065,-0.7408309 -1.8758,-0.7408369 l -0.6316,0 0,5.9646867 z"
         style="font-size:9.72585869px;line-height:93.00000072%;fill:#ffffff;marker:none;font-family:Bimini;-inkscape-font-specification:Bimini"
         id="path29330"
         inkscape:connector-curvature="0" />
      <path
         d="m -1011.0713,13.228156 0,-6.8194985 0.9355,0 0,6.8194985 z"
         style="font-size:9.72585869px;line-height:93.00000072%;fill:#ffffff;marker:none;font-family:Bimini;-inkscape-font-specification:Bimini"
         id="path29332"
         inkscape:connector-curvature="0" />
      <path
         d="m -1009.3094,9.7756662 c 0,-1.1365785 0.4274,-2.0277981 1.2822,-2.6736613 0.6997,-0.5382082 1.4832,-0.8073154 2.3507,-0.8073223 1.0195,6.9e-6 1.9344,0.4052507 2.7449,1.2157323 l -0.5936,0.6791005 c -0.3704,-0.3165916 -0.6823,-0.5477071 -0.9356,-0.6933473 -0.4084,-0.2311098 -0.8168,-0.3466676 -1.2252,-0.3466737 -0.8168,6.1e-6 -1.4785,0.2849431 -1.985,0.8548118 -0.4528,0.5128918 -0.6791,1.1065105 -0.6791,1.7808579 0,0.6996819 0.2263,1.3122969 0.6791,1.8378449 0.5002,0.576208 1.1555,0.864311 1.966,0.86431 0.7472,1e-6 1.3598,-0.25011 1.8379,-0.750335 0.4274,-0.443233 0.6411,-0.94029 0.6411,-1.491171 l -2.3887,0 0,-0.8595611 3.3432,0 0,0.6885981 c 0,0.959291 -0.3593,1.753949 -1.078,2.383975 -0.6744,0.588871 -1.4595,0.883306 -2.3555,0.883306 -1.0036,0 -1.8505,-0.33401 -2.5407,-1.002029 -0.7091,-0.687014 -1.0637,-1.541825 -1.0637,-2.5644358 z"
         style="font-size:9.72585869px;line-height:93.00000072%;fill:#ffffff;marker:none;font-family:Bimini;-inkscape-font-specification:Bimini"
         id="path29334"
         inkscape:connector-curvature="0" />
      <path
         d="m -1001.3454,13.228156 0,-6.8194985 0.9355,0 0,6.8194985 z"
         style="font-size:9.72585869px;line-height:93.00000072%;fill:#ffffff;marker:none;font-family:Bimini;-inkscape-font-specification:Bimini"
         id="path29336"
         inkscape:connector-curvature="0" />
      <path
         d="m -999.78303,7.2634693 0,-0.8548118 4.29306,0 0,0.8548118 -1.68588,0 0,5.9646867 -0.91655,0 0,-5.9646867 z"
         style="font-size:9.72585869px;line-height:93.00000072%;fill:#ffffff;marker:none;font-family:Bimini;-inkscape-font-specification:Bimini"
         id="path29338"
         inkscape:connector-curvature="0" />
      <path
         d="m -995.11006,13.228156 0.019,-4.5257535 c 0,-0.6996741 0.21687,-1.2758799 0.6506,-1.7286194 0.43691,-0.452727 0.97829,-0.6790936 1.62415,-0.6791005 0.70284,6.9e-6 1.2743,0.2263735 1.71437,0.6791005 0.43373,0.4590714 0.6506,1.1065115 0.65061,1.9423224 l 0,4.3120505 -0.91655,0 0,-3.096318 -2.44571,0 0,-0.8738078 2.44571,0 c -10e-6,-1.4056852 -0.46224,-2.1085297 -1.3867,-2.1085358 -0.50655,6.1e-6 -0.88647,0.1915471 -1.13975,0.5746235 -0.18679,0.2849425 -0.28019,0.611037 -0.28018,0.9782846 l 0,4.5257535 z"
         style="font-size:9.72585869px;line-height:93.00000072%;fill:#ffffff;marker:none;font-family:Bimini;-inkscape-font-specification:Bimini"
         id="path29340"
         inkscape:connector-curvature="0" />
      <path
         d="m -989.45406,6.4086575 0.89756,0 0,4.4450215 c 0,0.500225 0.0997,0.870643 0.29918,1.111255 0.22795,0.272275 0.59837,0.408411 1.11126,0.40841 l 0.8738,0 0,0.854812 -1.1065,0 c -0.4749,0 -0.91022,-0.142468 -1.30596,-0.427406 -0.51289,-0.370417 -0.76934,-0.899134 -0.76934,-1.586151 z"
         style="font-size:9.72585869px;line-height:93.00000072%;fill:#ffffff;marker:none;font-family:Bimini;-inkscape-font-specification:Bimini"
         id="path29342"
         inkscape:connector-curvature="0" />
      <path
         d="m -1017.1788,23.329855 0,-5.353532 c 0,-0.785398 0.2502,-1.42468 0.7507,-1.917847 0.4968,-0.485847 1.0959,-0.728774 1.7973,-0.728782 0.6575,8e-6 1.2292,0.204578 1.7151,0.613711 0.5625,0.478555 0.8438,1.114184 0.8438,1.906888 0,0.734266 -0.2319,1.344323 -0.6959,1.830174 -0.4201,0.442021 -0.895,0.66303 -1.4247,0.663027 l -1.5123,0 0,-0.986321 1.1507,0 c 0.5333,4e-6 0.9224,-0.195434 1.1671,-0.586314 0.1717,-0.266667 0.2576,-0.573522 0.2576,-0.920566 0,-0.379911 -0.093,-0.705031 -0.2795,-0.975362 -0.2593,-0.372604 -0.6667,-0.558909 -1.2219,-0.558916 -0.5516,7e-6 -0.9553,0.200924 -1.211,0.602752 -0.1863,0.299556 -0.2795,0.65938 -0.2795,1.079474 l 0,5.331614 z"
         style="font-size:11.22214413px;line-height:93.00000072%;fill:#333333;marker:none;font-family:Bimini;-inkscape-font-specification:Bimini"
         id="path29344"
         inkscape:connector-curvature="0" />
      <path
         d="m -1011.5897,23.329855 0.022,-5.222023 c 0,-0.807316 0.2502,-1.472169 0.7507,-1.99456 0.5041,-0.522378 1.1287,-0.78357 1.874,-0.783578 0.8109,8e-6 1.4703,0.2612 1.9781,0.783578 0.5004,0.529697 0.7507,1.276744 0.7507,2.241141 l 0,4.975442 -1.0576,0 0,-3.572674 -2.8219,0 0,-1.00824 2.8219,0 c 0,-1.621944 -0.5333,-2.432919 -1.6,-2.432926 -0.5845,7e-6 -1.0229,0.221016 -1.3151,0.663027 -0.2155,0.32878 -0.3233,0.705043 -0.3233,1.12879 l 0,5.222023 z"
         style="font-size:11.22214413px;line-height:93.00000072%;fill:#333333;marker:none;font-family:Bimini;-inkscape-font-specification:Bimini"
         id="path29346"
         inkscape:connector-curvature="0" />
      <path
         d="m -1005.2115,23.329855 0,-6.88233 c 0,-0.343379 0.087,-0.608224 0.2603,-0.794537 0.1735,-0.186297 0.3882,-0.279449 0.6439,-0.279457 0.4091,8e-6 0.7141,0.204578 0.9151,0.613711 l 2.8493,5.846693 0,-6.372731 1.05759,0 0,7.227543 c -10e-6,0.233795 -0.0749,0.409141 -0.22466,0.526038 -0.15709,0.124203 -0.34703,0.186305 -0.56983,0.186305 -0.2192,0 -0.422,-0.05845 -0.6083,-0.175346 -0.1863,-0.102285 -0.3123,-0.244754 -0.3781,-0.427406 l -2.8877,-5.978203 0,6.50972 z"
         style="font-size:11.22214413px;line-height:93.00000072%;fill:#333333;marker:none;font-family:Bimini;-inkscape-font-specification:Bimini"
         id="path29348"
         inkscape:connector-curvature="0" />
      <path
         d="m -998.23597,23.329855 0,-7.868651 2.07676,0 c 0.93517,7e-6 1.76624,0.317822 2.4932,0.953443 0.83654,0.741574 1.25481,1.718762 1.25482,2.931566 -10e-6,1.015549 -0.29225,1.901411 -0.87673,2.657588 -0.67947,0.884037 -1.62196,1.326054 -2.82746,1.326054 l -0.63563,0 0,-1.013719 0.72878,0 c 0.74522,1e-6 1.36441,-0.339731 1.85758,-1.019198 0.43105,-0.599096 0.64658,-1.249337 0.64658,-1.950725 0,-0.825582 -0.25937,-1.506874 -0.77809,-2.043876 -0.55527,-0.569868 -1.27674,-0.854805 -2.16443,-0.854812 l -0.72878,0 0,6.88233 z"
         style="font-size:11.22214413px;line-height:93.00000072%;fill:#333333;marker:none;font-family:Bimini;-inkscape-font-specification:Bimini"
         id="path29350"
         inkscape:connector-curvature="0" />
      <path
         d="m -991.62214,23.329855 0.0219,-5.222023 c 0,-0.807316 0.25023,-1.472169 0.7507,-1.99456 0.50412,-0.522378 1.12879,-0.78357 1.87401,-0.783578 0.81097,8e-6 1.47035,0.2612 1.97812,0.783578 0.50047,0.529697 0.7507,1.276744 0.7507,2.241141 l 0,4.975442 -1.05755,0 0,-3.572674 -2.82198,0 0,-1.00824 2.82198,0 c -10e-6,-1.621944 -0.53335,-2.432919 -1.60003,-2.432926 -0.58449,7e-6 -1.02286,0.221016 -1.3151,0.663027 -0.21553,0.32878 -0.32329,0.705043 -0.32329,1.12879 l 0,5.222023 z"
         style="font-size:11.22214413px;line-height:93.00000072%;fill:#333333;marker:none;font-family:Bimini;-inkscape-font-specification:Bimini"
         id="path29352"
         inkscape:connector-curvature="0" />
    </g>
  </g>
</svg>
