<?xml version="1.0" encoding="UTF-8" standalone="no"?>
<!-- Created with Inkscape (http://www.inkscape.org/) -->

<svg
   xmlns:dc="http://purl.org/dc/elements/1.1/"
   xmlns:cc="http://creativecommons.org/ns#"
   xmlns:rdf="http://www.w3.org/1999/02/22-rdf-syntax-ns#"
   xmlns:svg="http://www.w3.org/2000/svg"
   xmlns="http://www.w3.org/2000/svg"
   xmlns:sodipodi="http://sodipodi.sourceforge.net/DTD/sodipodi-0.dtd"
   xmlns:inkscape="http://www.inkscape.org/namespaces/inkscape"
   width="20"
   height="20"
   id="svg28946"
   version="1.1"
   inkscape:version="0.48.2 r9819"
   sodipodi:docname="digitalpandahead.svg">
  <defs
     id="defs28948" />
  <sodipodi:namedview
     id="base"
     pagecolor="#ffffff"
     bordercolor="#666666"
     borderopacity="1.0"
     inkscape:pageopacity="0.0"
     inkscape:pageshadow="2"
     inkscape:zoom="8"
     inkscape:cx="-28.043427"
     inkscape:cy="12.328184"
     inkscape:document-units="px"
     inkscape:current-layer="g29479"
     showgrid="false"
     inkscape:window-width="1920"
     inkscape:window-height="1018"
     inkscape:window-x="-8"
     inkscape:window-y="-8"
     inkscape:window-maximized="1" />
  <metadata
     id="metadata28951">
    <rdf:RDF>
      <cc:Work
         rdf:about="">
        <dc:format>image/svg+xml</dc:format>
        <dc:type
           rdf:resource="http://purl.org/dc/dcmitype/StillImage" />
        <dc:title></dc:title>
      </cc:Work>
    </rdf:RDF>
  </metadata>
  <g
     inkscape:label="Layer 1"
     inkscape:groupmode="layer"
     id="layer1"
     transform="translate(0,-1032.3622)">
    <g
       transform="matrix(1.0274978,0,0,1.0274978,-97.287491,762.14548)"
       id="g29479"
       style="fill:#cccccc">
      <path
         transform="translate(-149.39623,-0.582107)"
         d="m 263.25,273.29968 c 0,5.21219 -4.22531,9.4375 -9.4375,9.4375 -5.21219,0 -9.4375,-4.22531 -9.4375,-9.4375 0,-5.21218 4.22531,-9.4375 9.4375,-9.4375 5.21219,0 9.4375,4.22532 9.4375,9.4375 z"
         sodipodi:ry="9.4375"
         sodipodi:rx="9.4375"
         sodipodi:cy="273.29968"
         sodipodi:cx="253.8125"
         id="path29481"
         style="color:#000000;fill:#cccccc;fill-opacity:1;fill-rule:nonzero;stroke:#000000;stroke-width:0.5;stroke-miterlimit:4;stroke-dasharray:none;marker:none;visibility:visible;display:inline;overflow:visible;enable-background:accumulate"
         sodipodi:type="arc" />
      <g
         id="g29483"
         transform="matrix(0.9110263,0,0,0.9110263,9.7858774,24.696378)"
         style="fill:#ffffff;stroke:none">
        <path
           sodipodi:type="arc"
           style="color:#000000;fill:#ffffff;fill-opacity:1;fill-rule:nonzero;stroke:none;stroke-width:0.5;marker:none;visibility:visible;display:inline;overflow:visible;enable-background:accumulate"
           id="path29485"
           sodipodi:cx="253.8125"
           sodipodi:cy="273.29968"
           sodipodi:rx="9.4375"
           sodipodi:ry="9.4375"
           d="m 263.25,273.29968 c 0,5.21219 -4.22531,9.4375 -9.4375,9.4375 -5.21219,0 -9.4375,-4.22531 -9.4375,-9.4375 0,-5.21218 4.22531,-9.4375 9.4375,-9.4375 5.21219,0 9.4375,4.22532 9.4375,9.4375 z"
           transform="translate(-149.39623,-0.582107)" />
        <path
           sodipodi:type="arc"
           style="color:#000000;fill:#ffffff;fill-opacity:1;fill-rule:nonzero;stroke:none;stroke-width:1.53465343;marker:none;visibility:visible;display:inline;overflow:visible;enable-background:accumulate"
           id="path29487"
           sodipodi:cx="253.8125"
           sodipodi:cy="273.29968"
           sodipodi:rx="9.4375"
           sodipodi:ry="9.4375"
           d="m 263.25,273.29968 c 0,5.21219 -4.22531,9.4375 -9.4375,9.4375 -5.21219,0 -9.4375,-4.22531 -9.4375,-9.4375 0,-5.21218 4.22531,-9.4375 9.4375,-9.4375 5.21219,0 9.4375,4.22532 9.4375,9.4375 z"
           transform="matrix(0.6516129,0,0,0.6516129,-60.97123,94.631976)" />
        <path
           transform="matrix(0.58710235,0,0,0.58710235,-44.597646,112.26269)"
           d="m 263.25,273.29968 c 0,5.21219 -4.22531,9.4375 -9.4375,9.4375 -5.21219,0 -9.4375,-4.22531 -9.4375,-9.4375 0,-5.21218 4.22531,-9.4375 9.4375,-9.4375 5.21219,0 9.4375,4.22532 9.4375,9.4375 z"
           sodipodi:ry="9.4375"
           sodipodi:rx="9.4375"
           sodipodi:cy="273.29968"
           sodipodi:cx="253.8125"
           id="path29489"
           style="color:#000000;fill:#ffffff;fill-opacity:1;fill-rule:nonzero;stroke:none;stroke-width:0.30693069;marker:none;visibility:visible;display:inline;overflow:visible;enable-background:accumulate"
           sodipodi:type="arc" />
        <g
           transform="matrix(0.48433603,0,0,0.48433603,18.91007,143.59345)"
           id="g29491"
           style="fill:#ffffff;stroke:none">
          <path
             sodipodi:nodetypes="cccc"
             inkscape:connector-curvature="0"
             id="path29493"
             d="m 173.45131,266.85492 -3.57734,5 -3.57735,-5 z"
             style="color:#000000;fill:#ffffff;fill-opacity:1;fill-rule:nonzero;stroke:none;stroke-width:0.16917083;marker:none;visibility:visible;display:inline;overflow:visible;enable-background:accumulate" />
          <path
             style="color:#000000;fill:#ffffff;fill-opacity:1;fill-rule:nonzero;stroke:none;stroke-width:0.16917083;marker:none;visibility:visible;display:inline;overflow:visible;enable-background:accumulate"
             d="m 179.19978,266.64634 3.66102,-4.93906 3.49266,5.05952 z"
             id="path29495"
             inkscape:connector-curvature="0"
             sodipodi:nodetypes="cccc" />
          <path
             id="path29497"
             d="m 176.875,258.71875 c -4.68629,0 -8.5,3.78246 -8.5,8.46875 0,0.5182 0.0357,1.03835 0.125,1.53125 l 2.59375,0 c -0.0439,-0.34891 -0.0625,-0.70154 -0.0625,-1.0625 0,-4.68629 3.81371,-8.5 8.5,-8.5 -0.83697,-0.27619 -1.72675,-0.4375 -2.65625,-0.4375 z"
             style="color:#000000;fill:#ffffff;fill-opacity:1;fill-rule:nonzero;stroke:none;stroke-width:0.2;marker:none;visibility:visible;display:inline;overflow:visible;enable-background:accumulate"
             inkscape:connector-curvature="0" />
          <path
             style="color:#000000;fill:#ffffff;fill-opacity:1;fill-rule:nonzero;stroke:none;stroke-width:0.2;marker:none;visibility:visible;display:inline;overflow:visible;enable-background:accumulate"
             d="m 175.63959,274.72371 c 4.68563,0.0789 8.56248,-3.63881 8.64138,-8.32444 0.009,-0.51812 -0.0182,-1.0388 -0.0992,-1.53314 l -2.59338,-0.0437 c 0.038,0.3496 0.0507,0.70249 0.0446,1.0634 -0.0789,4.68563 -3.95628,8.43459 -8.64191,8.35569 0.8322,0.29024 1.71914,0.46651 2.64851,0.48216 z"
             id="path29499"
             inkscape:connector-curvature="0" />
        </g>
      </g>
      <path
         inkscape:connector-curvature="0"
         style="opacity:0.3;color:#000000;fill:#000000;fill-opacity:1;fill-rule:nonzero;stroke:none;stroke-width:0.2;marker:none;visibility:visible;display:inline;overflow:visible;enable-background:accumulate"
         d="m 104.84444,263.24693 -2.5625,0.34375 c 0,0 -2.125,0.7683 -2.125,0.8125 0,0.0442 -2.468748,1.6875 -2.468748,1.6875 l -0.84375,1.125 c 1.79571,1.37864 4.891048,2.3125 8.437498,2.3125 2.90069,0 5.50527,-0.6172 7.34375,-1.59375 l -0.28125,-0.40625 -1.15625,-1.625 -2.25,-1.5625 -1.75,-0.6875 -2.34375,-0.40625 z"
         id="path29501" />
      <path
         transform="matrix(0.6516129,0,0,0.6516129,-60.97123,94.631976)"
         d="m 263.25,273.29968 c 0,5.21219 -4.22531,9.4375 -9.4375,9.4375 -5.21219,0 -9.4375,-4.22531 -9.4375,-9.4375 0,-5.21218 4.22531,-9.4375 9.4375,-9.4375 5.21219,0 9.4375,4.22532 9.4375,9.4375 z"
         sodipodi:ry="9.4375"
         sodipodi:rx="9.4375"
         sodipodi:cy="273.29968"
         sodipodi:cx="253.8125"
         id="path29503"
         style="color:#000000;fill:#666666;fill-opacity:1;fill-rule:nonzero;stroke:#4d4d4d;stroke-width:1.53465343000000010;stroke-miterlimit:4;stroke-dasharray:none;marker:none;visibility:visible;display:inline;overflow:visible;enable-background:accumulate"
         sodipodi:type="arc" />
      <path
         sodipodi:type="arc"
         style="color:#000000;fill:#808080;fill-opacity:1;fill-rule:nonzero;stroke:#b3b3b3;stroke-width:0.30693069000000001;stroke-miterlimit:4;stroke-dasharray:none;marker:none;visibility:visible;display:inline;overflow:visible;enable-background:accumulate"
         id="path29505"
         sodipodi:cx="253.8125"
         sodipodi:cy="273.29968"
         sodipodi:rx="9.4375"
         sodipodi:ry="9.4375"
         d="m 263.25,273.29968 a 9.4375,9.4375 0 1 1 -18.875,0 9.4375,9.4375 0 1 1 18.875,0 z"
         transform="matrix(0.58710235,0,0,0.58710235,-44.597646,112.26269)" />
      <g
         id="g29507"
         transform="matrix(0.48433603,0,0,0.48433603,18.91007,143.59345)"
         style="fill:#b3b3b3;stroke:none">
        <path
           style="color:#000000;fill:#b3b3b3;fill-opacity:1;fill-rule:nonzero;stroke:none;stroke-width:0.16917082999999999;marker:none;visibility:visible;display:inline;overflow:visible;enable-background:accumulate"
           d="m 173.45131,266.85492 -3.57734,5 -3.57735,-5 z"
           id="path29509"
           inkscape:connector-curvature="0"
           sodipodi:nodetypes="cccc" />
        <path
           sodipodi:nodetypes="cccc"
           inkscape:connector-curvature="0"
           id="path29511"
           d="m 179.19978,266.64634 3.66102,-4.93906 3.49266,5.05952 z"
           style="color:#000000;fill:#b3b3b3;fill-opacity:1;fill-rule:nonzero;stroke:none;stroke-width:0.16917082999999999;marker:none;visibility:visible;display:inline;overflow:visible;enable-background:accumulate" />
        <path
           inkscape:connector-curvature="0"
           style="color:#000000;fill:#b3b3b3;fill-opacity:1;fill-rule:nonzero;stroke:none;stroke-width:0.20000000000000001;marker:none;visibility:visible;display:inline;overflow:visible;enable-background:accumulate"
           d="m 176.875,258.71875 c -4.68629,0 -8.5,3.78246 -8.5,8.46875 0,0.5182 0.0357,1.03835 0.125,1.53125 l 2.59375,0 c -0.0439,-0.34891 -0.0625,-0.70154 -0.0625,-1.0625 0,-4.68629 3.81371,-8.5 8.5,-8.5 -0.83697,-0.27619 -1.72675,-0.4375 -2.65625,-0.4375 z"
           id="path29513" />
        <path
           inkscape:connector-curvature="0"
           id="path29515"
           d="m 175.63959,274.72371 c 4.68563,0.0789 8.56248,-3.63881 8.64138,-8.32444 0.009,-0.51812 -0.0182,-1.0388 -0.0992,-1.53314 l -2.59338,-0.0437 c 0.038,0.3496 0.0507,0.70249 0.0446,1.0634 -0.0789,4.68563 -3.95628,8.43459 -8.64191,8.35569 0.8322,0.29024 1.71914,0.46651 2.64851,0.48216 z"
           style="color:#000000;fill:#b3b3b3;fill-opacity:1;fill-rule:nonzero;stroke:none;stroke-width:0.20000000000000001;marker:none;visibility:visible;display:inline;overflow:visible;enable-background:accumulate" />
      </g>
    </g>
    <g
       style="fill:#cccccc"
       id="g26755"
       transform="matrix(1.0274978,0,0,1.0274978,-120.97499,762.20798)">
      <path
         sodipodi:type="arc"
         style="color:#000000;fill:#cccccc;fill-opacity:1;fill-rule:nonzero;stroke:#000000;stroke-width:0.5;stroke-miterlimit:4;stroke-dasharray:none;marker:none;visibility:visible;display:inline;overflow:visible;enable-background:accumulate"
         id="path26757"
         sodipodi:cx="253.8125"
         sodipodi:cy="273.29968"
         sodipodi:rx="9.4375"
         sodipodi:ry="9.4375"
         d="m 263.25,273.29968 c 0,5.21219 -4.22531,9.4375 -9.4375,9.4375 -5.21219,0 -9.4375,-4.22531 -9.4375,-9.4375 0,-5.21218 4.22531,-9.4375 9.4375,-9.4375 5.21219,0 9.4375,4.22532 9.4375,9.4375 z"
         transform="translate(-149.39623,-0.582107)" />
      <g
         style="fill:#ffffff;stroke:none"
         transform="matrix(0.9110263,0,0,0.9110263,9.7858774,24.696378)"
         id="g26759">
        <path
           transform="translate(-149.39623,-0.582107)"
           d="m 263.25,273.29968 c 0,5.21219 -4.22531,9.4375 -9.4375,9.4375 -5.21219,0 -9.4375,-4.22531 -9.4375,-9.4375 0,-5.21218 4.22531,-9.4375 9.4375,-9.4375 5.21219,0 9.4375,4.22532 9.4375,9.4375 z"
           sodipodi:ry="9.4375"
           sodipodi:rx="9.4375"
           sodipodi:cy="273.29968"
           sodipodi:cx="253.8125"
           id="path26761"
           style="color:#000000;fill:#ffffff;fill-opacity:1;fill-rule:nonzero;stroke:none;stroke-width:0.5;marker:none;visibility:visible;display:inline;overflow:visible;enable-background:accumulate"
           sodipodi:type="arc" />
        <path
           transform="matrix(0.6516129,0,0,0.6516129,-60.97123,94.631976)"
           d="m 263.25,273.29968 c 0,5.21219 -4.22531,9.4375 -9.4375,9.4375 -5.21219,0 -9.4375,-4.22531 -9.4375,-9.4375 0,-5.21218 4.22531,-9.4375 9.4375,-9.4375 5.21219,0 9.4375,4.22532 9.4375,9.4375 z"
           sodipodi:ry="9.4375"
           sodipodi:rx="9.4375"
           sodipodi:cy="273.29968"
           sodipodi:cx="253.8125"
           id="path26763"
           style="color:#000000;fill:#ffffff;fill-opacity:1;fill-rule:nonzero;stroke:none;stroke-width:1.53465343;marker:none;visibility:visible;display:inline;overflow:visible;enable-background:accumulate"
           sodipodi:type="arc" />
        <path
           sodipodi:type="arc"
           style="color:#000000;fill:#ffffff;fill-opacity:1;fill-rule:nonzero;stroke:none;stroke-width:0.30693069;marker:none;visibility:visible;display:inline;overflow:visible;enable-background:accumulate"
           id="path26765"
           sodipodi:cx="253.8125"
           sodipodi:cy="273.29968"
           sodipodi:rx="9.4375"
           sodipodi:ry="9.4375"
           d="m 263.25,273.29968 c 0,5.21219 -4.22531,9.4375 -9.4375,9.4375 -5.21219,0 -9.4375,-4.22531 -9.4375,-9.4375 0,-5.21218 4.22531,-9.4375 9.4375,-9.4375 5.21219,0 9.4375,4.22532 9.4375,9.4375 z"
           transform="matrix(0.58710235,0,0,0.58710235,-44.597646,112.26269)" />
        <g
           style="fill:#ffffff;stroke:none"
           id="g26767"
           transform="matrix(0.48433603,0,0,0.48433603,18.91007,143.59345)">
          <path
             style="color:#000000;fill:#ffffff;fill-opacity:1;fill-rule:nonzero;stroke:none;stroke-width:0.16917083;marker:none;visibility:visible;display:inline;overflow:visible;enable-background:accumulate"
             d="m 173.45131,266.85492 -3.57734,5 -3.57735,-5 z"
             id="path26769"
             inkscape:connector-curvature="0"
             sodipodi:nodetypes="cccc" />
          <path
             sodipodi:nodetypes="cccc"
             inkscape:connector-curvature="0"
             id="path26771"
             d="m 179.19978,266.64634 3.66102,-4.93906 3.49266,5.05952 z"
             style="color:#000000;fill:#ffffff;fill-opacity:1;fill-rule:nonzero;stroke:none;stroke-width:0.16917083;marker:none;visibility:visible;display:inline;overflow:visible;enable-background:accumulate" />
          <path
             inkscape:connector-curvature="0"
             style="color:#000000;fill:#ffffff;fill-opacity:1;fill-rule:nonzero;stroke:none;stroke-width:0.2;marker:none;visibility:visible;display:inline;overflow:visible;enable-background:accumulate"
             d="m 176.875,258.71875 c -4.68629,0 -8.5,3.78246 -8.5,8.46875 0,0.5182 0.0357,1.03835 0.125,1.53125 l 2.59375,0 c -0.0439,-0.34891 -0.0625,-0.70154 -0.0625,-1.0625 0,-4.68629 3.81371,-8.5 8.5,-8.5 -0.83697,-0.27619 -1.72675,-0.4375 -2.65625,-0.4375 z"
             id="path26773" />
          <path
             inkscape:connector-curvature="0"
             id="path26775"
             d="m 175.63959,274.72371 c 4.68563,0.0789 8.56248,-3.63881 8.64138,-8.32444 0.009,-0.51812 -0.0182,-1.0388 -0.0992,-1.53314 l -2.59338,-0.0437 c 0.038,0.3496 0.0507,0.70249 0.0446,1.0634 -0.0789,4.68563 -3.95628,8.43459 -8.64191,8.35569 0.8322,0.29024 1.71914,0.46651 2.64851,0.48216 z"
             style="color:#000000;fill:#ffffff;fill-opacity:1;fill-rule:nonzero;stroke:none;stroke-width:0.2;marker:none;visibility:visible;display:inline;overflow:visible;enable-background:accumulate" />
        </g>
      </g>
      <path
         id="path26777"
         d="m 104.84444,263.24693 -2.5625,0.34375 c 0,0 -2.125,0.7683 -2.125,0.8125 0,0.0442 -2.468748,1.6875 -2.468748,1.6875 l -0.84375,1.125 c 1.79571,1.37864 4.891048,2.3125 8.437498,2.3125 2.90069,0 5.50527,-0.6172 7.34375,-1.59375 l -0.28125,-0.40625 -1.15625,-1.625 -2.25,-1.5625 -1.75,-0.6875 -2.34375,-0.40625 z"
         style="opacity:0.3;color:#000000;fill:#000000;fill-opacity:1;fill-rule:nonzero;stroke:none;stroke-width:0.2;marker:none;visibility:visible;display:inline;overflow:visible;enable-background:accumulate"
         inkscape:connector-curvature="0" />
      <path
         sodipodi:type="arc"
         style="color:#000000;fill:#cccccc;fill-opacity:1;fill-rule:nonzero;stroke:#112b00;stroke-width:1.53465343;stroke-miterlimit:4;stroke-dasharray:none;marker:none;visibility:visible;display:inline;overflow:visible;enable-background:accumulate"
         id="path26779"
         sodipodi:cx="253.8125"
         sodipodi:cy="273.29968"
         sodipodi:rx="9.4375"
         sodipodi:ry="9.4375"
         d="m 263.25,273.29968 c 0,5.21219 -4.22531,9.4375 -9.4375,9.4375 -5.21219,0 -9.4375,-4.22531 -9.4375,-9.4375 0,-5.21218 4.22531,-9.4375 9.4375,-9.4375 5.21219,0 9.4375,4.22532 9.4375,9.4375 z"
         transform="matrix(0.6516129,0,0,0.6516129,-60.97123,94.631976)" />
      <path
         transform="matrix(0.58710235,0,0,0.58710235,-44.597646,112.26269)"
         d="m 263.25,273.29968 c 0,5.21219 -4.22531,9.4375 -9.4375,9.4375 -5.21219,0 -9.4375,-4.22531 -9.4375,-9.4375 0,-5.21218 4.22531,-9.4375 9.4375,-9.4375 5.21219,0 9.4375,4.22532 9.4375,9.4375 z"
         sodipodi:ry="9.4375"
         sodipodi:rx="9.4375"
         sodipodi:cy="273.29968"
         sodipodi:cx="253.8125"
         id="path26781"
         style="color:#000000;fill:#008000;fill-opacity:1;fill-rule:nonzero;stroke:#00ff00;stroke-width:0.30693069;stroke-miterlimit:4;stroke-dasharray:none;marker:none;visibility:visible;display:inline;overflow:visible;enable-background:accumulate"
         sodipodi:type="arc" />
      <g
         style="fill:#00ff00;stroke:none"
         transform="matrix(0.48433603,0,0,0.48433603,18.91007,143.59345)"
         id="g26783">
        <path
           sodipodi:nodetypes="cccc"
           inkscape:connector-curvature="0"
           id="path26785"
           d="m 173.45131,266.85492 -3.57734,5 -3.57735,-5 z"
           style="color:#000000;fill:#00ff00;fill-opacity:1;fill-rule:nonzero;stroke:none;stroke-width:0.16917083;marker:none;visibility:visible;display:inline;overflow:visible;enable-background:accumulate" />
        <path
           style="color:#000000;fill:#00ff00;fill-opacity:1;fill-rule:nonzero;stroke:none;stroke-width:0.16917083;marker:none;visibility:visible;display:inline;overflow:visible;enable-background:accumulate"
           d="m 179.19978,266.64634 3.66102,-4.93906 3.49266,5.05952 z"
           id="path26787"
           inkscape:connector-curvature="0"
           sodipodi:nodetypes="cccc" />
        <path
           id="path26789"
           d="m 176.875,258.71875 c -4.68629,0 -8.5,3.78246 -8.5,8.46875 0,0.5182 0.0357,1.03835 0.125,1.53125 l 2.59375,0 c -0.0439,-0.34891 -0.0625,-0.70154 -0.0625,-1.0625 0,-4.68629 3.81371,-8.5 8.5,-8.5 -0.83697,-0.27619 -1.72675,-0.4375 -2.65625,-0.4375 z"
           style="color:#000000;fill:#00ff00;fill-opacity:1;fill-rule:nonzero;stroke:none;stroke-width:0.2;marker:none;visibility:visible;display:inline;overflow:visible;enable-background:accumulate"
           inkscape:connector-curvature="0" />
        <path
           style="color:#000000;fill:#00ff00;fill-opacity:1;fill-rule:nonzero;stroke:none;stroke-width:0.2;marker:none;visibility:visible;display:inline;overflow:visible;enable-background:accumulate"
           d="m 175.63959,274.72371 c 4.68563,0.0789 8.56248,-3.63881 8.64138,-8.32444 0.009,-0.51812 -0.0182,-1.0388 -0.0992,-1.53314 l -2.59338,-0.0437 c 0.038,0.3496 0.0507,0.70249 0.0446,1.0634 -0.0789,4.68563 -3.95628,8.43459 -8.64191,8.35569 0.8322,0.29024 1.71914,0.46651 2.64851,0.48216 z"
           id="path26791"
           inkscape:connector-curvature="0" />
      </g>
    </g>
  </g>
</svg>
