<?xml version="1.0" encoding="UTF-8" standalone="no"?>
<!-- Created with Inkscape (http://www.inkscape.org/) -->

<svg
   xmlns:dc="http://purl.org/dc/elements/1.1/"
   xmlns:cc="http://creativecommons.org/ns#"
   xmlns:rdf="http://www.w3.org/1999/02/22-rdf-syntax-ns#"
   xmlns:svg="http://www.w3.org/2000/svg"
   xmlns="http://www.w3.org/2000/svg"
   xmlns:sodipodi="http://sodipodi.sourceforge.net/DTD/sodipodi-0.dtd"
   xmlns:inkscape="http://www.inkscape.org/namespaces/inkscape"
   width="20.26"
   height="20.26"
   id="svg28946"
   version="1.1"
   inkscape:version="0.48.2 r9819"
   sodipodi:docname="digitalpandahead_smallicon.svg"
   inkscape:export-filename="C:\Users\sstrau\digital-panda\panda-tray\gfx\icon3232_2.png"
   inkscape:export-xdpi="142.15202"
   inkscape:export-ydpi="142.15202">
  <defs
     id="defs28948" />
  <sodipodi:namedview
     id="base"
     pagecolor="#ffffff"
     bordercolor="#666666"
     borderopacity="1.0"
     inkscape:pageopacity="0.0"
     inkscape:pageshadow="2"
     inkscape:zoom="16"
     inkscape:cx="5.0082714"
     inkscape:cy="10.13"
     inkscape:document-units="px"
     inkscape:current-layer="g28834"
     showgrid="false"
     inkscape:window-width="1280"
     inkscape:window-height="962"
     inkscape:window-x="-8"
     inkscape:window-y="-8"
     inkscape:window-maximized="1" />
  <metadata
     id="metadata28951">
    <rdf:RDF>
      <cc:Work
         rdf:about="">
        <dc:format>image/svg+xml</dc:format>
        <dc:type
           rdf:resource="http://purl.org/dc/dcmitype/StillImage" />
        <dc:title></dc:title>
      </cc:Work>
    </rdf:RDF>
  </metadata>
  <g
     inkscape:label="Layer 1"
     inkscape:groupmode="layer"
     id="layer1"
     transform="translate(0,-1032.1022)">
    <g
       id="g28834"
       transform="matrix(0.19345521,0,0,0.19345521,-33.52405,885.89323)">
      <path
         transform="matrix(1.3848964,0.33652353,-0.33652353,1.3848964,-147.01678,400.58499)"
         d="m 314.5,203.23718 c 0,8.76752 -7.10748,15.875 -15.875,15.875 -8.76752,0 -15.875,-7.10748 -15.875,-15.875 0,-8.76752 7.10748,-15.875 15.875,-15.875 8.76752,0 15.875,7.10748 15.875,15.875 z"
         sodipodi:ry="15.875"
         sodipodi:rx="15.875"
         sodipodi:cy="203.23718"
         sodipodi:cx="298.625"
         id="path25260"
         style="color:#000000;fill:#333333;fill-opacity:1;fill-rule:nonzero;stroke:#000000;stroke-width:0.70165747;stroke-miterlimit:4;stroke-dasharray:none;marker:none;visibility:visible;display:inline;overflow:visible;enable-background:accumulate"
         sodipodi:type="arc" />
      <path
         transform="matrix(1.0692479,0.25982238,-0.25982238,1.0692479,-64.986,493.03309)"
         d="m 314.5,203.23718 c 0,8.76752 -7.10748,15.875 -15.875,15.875 -8.76752,0 -15.875,-7.10748 -15.875,-15.875 0,-8.76752 7.10748,-15.875 15.875,-15.875 8.76752,0 15.875,7.10748 15.875,15.875 z"
         sodipodi:ry="15.875"
         sodipodi:rx="15.875"
         sodipodi:cy="203.23718"
         sodipodi:cx="298.625"
         id="path25262"
         style="color:#000000;fill:#1a1a1a;fill-opacity:1;fill-rule:nonzero;stroke:#000000;stroke-width:0.35082871;stroke-miterlimit:4;stroke-dasharray:none;marker:none;visibility:visible;display:inline;overflow:visible;enable-background:accumulate"
         sodipodi:type="arc" />
      <g
         transform="matrix(0.97172287,0.23612424,-0.23612424,0.97172287,29.27824,541.45044)"
         id="g25264">
        <path
           inkscape:connector-curvature="0"
           id="path25266"
           d="m 223.23191,181.68175 9.6148,8.1241"
           style="color:#000000;fill:#333333;fill-opacity:1;fill-rule:nonzero;stroke:#000000;stroke-width:0.30000001;stroke-miterlimit:4;stroke-opacity:1;stroke-dasharray:none;stroke-dashoffset:0;marker:none;visibility:visible;display:inline;overflow:visible;enable-background:accumulate" />
        <path
           style="color:#000000;fill:#333333;fill-opacity:1;fill-rule:nonzero;stroke:#000000;stroke-width:0.30000001;stroke-miterlimit:4;stroke-opacity:1;stroke-dasharray:none;stroke-dashoffset:0;marker:none;visibility:visible;display:inline;overflow:visible;enable-background:accumulate"
           d="m 219.34503,182.62623 9.6148,8.1241"
           id="path25268"
           inkscape:connector-curvature="0" />
        <path
           inkscape:connector-curvature="0"
           id="path25270"
           d="m 215.69427,184.54243 9.6148,8.1241"
           style="color:#000000;fill:#333333;fill-opacity:1;fill-rule:nonzero;stroke:#000000;stroke-width:0.30000001;stroke-miterlimit:4;stroke-opacity:1;stroke-dasharray:none;stroke-dashoffset:0;marker:none;visibility:visible;display:inline;overflow:visible;enable-background:accumulate" />
        <path
           inkscape:connector-curvature="0"
           id="path25272"
           d="m 213.03382,186.86051 9.6148,8.1241"
           style="color:#000000;fill:#333333;fill-opacity:1;fill-rule:nonzero;stroke:#000000;stroke-width:0.30000001;stroke-miterlimit:4;stroke-opacity:1;stroke-dasharray:none;stroke-dashoffset:0;marker:none;visibility:visible;display:inline;overflow:visible;enable-background:accumulate" />
        <path
           inkscape:connector-curvature="0"
           id="path25274"
           d="m 210.7961,189.72376 9.6148,8.1241"
           style="color:#000000;fill:#333333;fill-opacity:1;fill-rule:nonzero;stroke:#000000;stroke-width:0.30000001;stroke-miterlimit:4;stroke-opacity:1;stroke-dasharray:none;stroke-dashoffset:0;marker:none;visibility:visible;display:inline;overflow:visible;enable-background:accumulate" />
        <path
           inkscape:connector-curvature="0"
           id="path25276"
           d="m 208.88609,193.28054 9.6148,8.1241"
           style="color:#000000;fill:#333333;fill-opacity:1;fill-rule:nonzero;stroke:#000000;stroke-width:0.30000001;stroke-miterlimit:4;stroke-opacity:1;stroke-dasharray:none;stroke-dashoffset:0;marker:none;visibility:visible;display:inline;overflow:visible;enable-background:accumulate" />
        <path
           style="color:#000000;fill:#333333;fill-opacity:1;fill-rule:nonzero;stroke:#000000;stroke-width:0.30000001;stroke-miterlimit:4;stroke-opacity:1;stroke-dasharray:none;stroke-dashoffset:0;marker:none;visibility:visible;display:inline;overflow:visible;enable-background:accumulate"
           d="m 208.12776,197.73995 9.6148,8.1241"
           id="path25278"
           inkscape:connector-curvature="0" />
      </g>
      <g
         transform="matrix(0.97172287,0.23612424,-0.23612424,0.97172287,29.27824,541.45044)"
         id="g25280">
        <path
           inkscape:connector-curvature="0"
           id="path25282"
           d="m 223.23191,181.68175 9.6148,8.1241"
           style="color:#000000;fill:#333333;fill-opacity:1;fill-rule:nonzero;stroke:#000000;stroke-width:0.30000001;stroke-miterlimit:4;stroke-opacity:1;stroke-dasharray:none;stroke-dashoffset:0;marker:none;visibility:visible;display:inline;overflow:visible;enable-background:accumulate" />
        <path
           style="color:#000000;fill:#333333;fill-opacity:1;fill-rule:nonzero;stroke:#000000;stroke-width:0.30000001;stroke-miterlimit:4;stroke-opacity:1;stroke-dasharray:none;stroke-dashoffset:0;marker:none;visibility:visible;display:inline;overflow:visible;enable-background:accumulate"
           d="m 219.34503,182.62623 9.6148,8.1241"
           id="path25284"
           inkscape:connector-curvature="0" />
        <path
           inkscape:connector-curvature="0"
           id="path25286"
           d="m 215.69427,184.54243 9.6148,8.1241"
           style="color:#000000;fill:#333333;fill-opacity:1;fill-rule:nonzero;stroke:#000000;stroke-width:0.30000001;stroke-miterlimit:4;stroke-opacity:1;stroke-dasharray:none;stroke-dashoffset:0;marker:none;visibility:visible;display:inline;overflow:visible;enable-background:accumulate" />
        <path
           inkscape:connector-curvature="0"
           id="path25288"
           d="m 213.03382,186.86051 9.6148,8.1241"
           style="color:#000000;fill:#333333;fill-opacity:1;fill-rule:nonzero;stroke:#000000;stroke-width:0.30000001;stroke-miterlimit:4;stroke-opacity:1;stroke-dasharray:none;stroke-dashoffset:0;marker:none;visibility:visible;display:inline;overflow:visible;enable-background:accumulate" />
        <path
           inkscape:connector-curvature="0"
           id="path25290"
           d="m 210.7961,189.72376 9.6148,8.1241"
           style="color:#000000;fill:#333333;fill-opacity:1;fill-rule:nonzero;stroke:#000000;stroke-width:0.30000001;stroke-miterlimit:4;stroke-opacity:1;stroke-dasharray:none;stroke-dashoffset:0;marker:none;visibility:visible;display:inline;overflow:visible;enable-background:accumulate" />
        <path
           inkscape:connector-curvature="0"
           id="path25292"
           d="m 208.88609,193.28054 9.6148,8.1241"
           style="color:#000000;fill:#333333;fill-opacity:1;fill-rule:nonzero;stroke:#000000;stroke-width:0.30000001;stroke-miterlimit:4;stroke-opacity:1;stroke-dasharray:none;stroke-dashoffset:0;marker:none;visibility:visible;display:inline;overflow:visible;enable-background:accumulate" />
        <path
           style="color:#000000;fill:#333333;fill-opacity:1;fill-rule:nonzero;stroke:#000000;stroke-width:0.30000001;stroke-miterlimit:4;stroke-opacity:1;stroke-dasharray:none;stroke-dashoffset:0;marker:none;visibility:visible;display:inline;overflow:visible;enable-background:accumulate"
           d="m 208.12776,197.73995 9.6148,8.1241"
           id="path25294"
           inkscape:connector-curvature="0" />
      </g>
      <path
         transform="matrix(1.3848964,0.33652353,-0.33652353,1.3848964,-91.60135,418.16709)"
         d="m 314.5,203.23718 c 0,8.76752 -7.10748,15.875 -15.875,15.875 -8.76752,0 -15.875,-7.10748 -15.875,-15.875 0,-8.76752 7.10748,-15.875 15.875,-15.875 8.76752,0 15.875,7.10748 15.875,15.875 z"
         sodipodi:ry="15.875"
         sodipodi:rx="15.875"
         sodipodi:cy="203.23718"
         sodipodi:cx="298.625"
         id="path25296"
         style="color:#000000;fill:#333333;fill-opacity:1;fill-rule:nonzero;stroke:#000000;stroke-width:0.70165747;stroke-miterlimit:4;stroke-dasharray:none;marker:none;visibility:visible;display:inline;overflow:visible;enable-background:accumulate"
         sodipodi:type="arc" />
      <path
         sodipodi:type="arc"
         style="color:#000000;fill:#1a1a1a;fill-opacity:1;fill-rule:nonzero;stroke:#000000;stroke-width:0.35082871;stroke-miterlimit:4;stroke-dasharray:none;marker:none;visibility:visible;display:inline;overflow:visible;enable-background:accumulate"
         id="path25298"
         sodipodi:cx="298.625"
         sodipodi:cy="203.23718"
         sodipodi:rx="15.875"
         sodipodi:ry="15.875"
         d="m 314.5,203.23718 c 0,8.76752 -7.10748,15.875 -15.875,15.875 -8.76752,0 -15.875,-7.10748 -15.875,-15.875 0,-8.76752 7.10748,-15.875 15.875,-15.875 8.76752,0 15.875,7.10748 15.875,15.875 z"
         transform="matrix(1.0692479,0.25982238,-0.25982238,1.0692479,-16.19564,506.73328)" />
      <g
         transform="matrix(-0.51616434,0.85648956,-0.85648956,-0.51616434,537.03372,711.14382)"
         id="g25300">
        <path
           style="color:#000000;fill:#333333;fill-opacity:1;fill-rule:nonzero;stroke:#000000;stroke-width:0.30000001;stroke-miterlimit:4;stroke-opacity:1;stroke-dasharray:none;stroke-dashoffset:0;marker:none;visibility:visible;display:inline;overflow:visible;enable-background:accumulate"
           d="m 223.23191,181.68175 9.6148,8.1241"
           id="path25302"
           inkscape:connector-curvature="0" />
        <path
           inkscape:connector-curvature="0"
           id="path25304"
           d="m 219.34503,182.62623 9.6148,8.1241"
           style="color:#000000;fill:#333333;fill-opacity:1;fill-rule:nonzero;stroke:#000000;stroke-width:0.30000001;stroke-miterlimit:4;stroke-opacity:1;stroke-dasharray:none;stroke-dashoffset:0;marker:none;visibility:visible;display:inline;overflow:visible;enable-background:accumulate" />
        <path
           style="color:#000000;fill:#333333;fill-opacity:1;fill-rule:nonzero;stroke:#000000;stroke-width:0.30000001;stroke-miterlimit:4;stroke-opacity:1;stroke-dasharray:none;stroke-dashoffset:0;marker:none;visibility:visible;display:inline;overflow:visible;enable-background:accumulate"
           d="m 215.69427,184.54243 9.6148,8.1241"
           id="path25306"
           inkscape:connector-curvature="0" />
        <path
           style="color:#000000;fill:#333333;fill-opacity:1;fill-rule:nonzero;stroke:#000000;stroke-width:0.30000001;stroke-miterlimit:4;stroke-opacity:1;stroke-dasharray:none;stroke-dashoffset:0;marker:none;visibility:visible;display:inline;overflow:visible;enable-background:accumulate"
           d="m 213.03382,186.86051 9.6148,8.1241"
           id="path25308"
           inkscape:connector-curvature="0" />
        <path
           style="color:#000000;fill:#333333;fill-opacity:1;fill-rule:nonzero;stroke:#000000;stroke-width:0.30000001;stroke-miterlimit:4;stroke-opacity:1;stroke-dasharray:none;stroke-dashoffset:0;marker:none;visibility:visible;display:inline;overflow:visible;enable-background:accumulate"
           d="m 210.7961,189.72376 9.6148,8.1241"
           id="path25310"
           inkscape:connector-curvature="0" />
        <path
           style="color:#000000;fill:#333333;fill-opacity:1;fill-rule:nonzero;stroke:#000000;stroke-width:0.30000001;stroke-miterlimit:4;stroke-opacity:1;stroke-dasharray:none;stroke-dashoffset:0;marker:none;visibility:visible;display:inline;overflow:visible;enable-background:accumulate"
           d="m 208.88609,193.28054 9.6148,8.1241"
           id="path25312"
           inkscape:connector-curvature="0" />
        <path
           inkscape:connector-curvature="0"
           id="path25314"
           d="m 208.12776,197.73995 9.6148,8.1241"
           style="color:#000000;fill:#333333;fill-opacity:1;fill-rule:nonzero;stroke:#000000;stroke-width:0.30000001;stroke-miterlimit:4;stroke-opacity:1;stroke-dasharray:none;stroke-dashoffset:0;marker:none;visibility:visible;display:inline;overflow:visible;enable-background:accumulate" />
      </g>
      <path
         transform="matrix(-0.97172287,-0.23612424,-0.23612424,0.97172287,681.64417,668.73241)"
         d="m 457.14452,248.73532 c 0,23.62672 -19.15324,42.77996 -42.77996,42.77996 -23.62672,0 -42.77996,-19.15324 -42.77996,-42.77996 0,-23.62672 19.15324,-42.77996 42.77996,-42.77996 23.62672,0 42.77996,19.15324 42.77996,42.77996 z"
         sodipodi:ry="42.779961"
         sodipodi:rx="42.779961"
         sodipodi:cy="248.73532"
         sodipodi:cx="414.36456"
         id="path25316"
         style="color:#000000;fill:#ffffff;fill-opacity:1;fill-rule:nonzero;stroke:none;stroke-width:1;marker:none;visibility:visible;display:inline;overflow:visible;enable-background:accumulate"
         sodipodi:type="arc" />
      <path
         style="color:#000000;fill:#cccccc;fill-opacity:1;fill-rule:nonzero;stroke:none;stroke-width:1;marker:none;visibility:visible;display:inline;overflow:visible;enable-background:accumulate"
         d="m 219.49193,770.3118 c -18.76891,0.25328 -35.72207,13.15938 -40.35919,32.30263 -5.49583,22.6883 8.38351,45.53488 31.00053,51.04804 5.91058,1.44077 11.83266,1.54857 17.45512,0.52499 -41.28781,-1.3485 -47.97598,-30.63935 -43.32376,-52.01389 4.05177,-16.72683 18.57942,-30.11491 37.96716,-31.80001 -0.91704,-0.048 -1.83018,-0.074 -2.73986,-0.0618 z"
         id="path25318"
         inkscape:connector-curvature="0"
         sodipodi:nodetypes="cssccccc" />
      <path
         sodipodi:nodetypes="cccscccccccc"
         inkscape:connector-curvature="0"
         id="path25320"
         d="m 213.08159,837.01275 -1.64551,5.32504 -7.72318,0.82447 c 0,0 -8.70196,-7.65497 -8.69044,-7.70239 0.0115,-0.0474 7.79496,9.36268 7.90131,9.33831 0.10637,-0.0244 9.25329,-1.3764 9.25329,-1.3764 l 7.14641,5.27461 11.57158,-4.57976 -11.28868,2.51089 -6.60679,-4.11068 0.99314,-5.53379 z"
         style="color:#000000;fill:#1a1a1a;fill-opacity:1;fill-rule:nonzero;stroke:none;stroke-width:0.5;marker:none;visibility:visible;display:inline;overflow:visible;enable-background:accumulate" />
      <path
         sodipodi:nodetypes="cccccccc"
         style="color:#000000;fill:#1a1a1a;fill-opacity:1;fill-rule:nonzero;stroke:none;stroke-width:0.33960077;marker:none;visibility:visible;display:inline;overflow:visible;enable-background:accumulate"
         d="m 209.52725,795.46473 6.599,11.48841 -6.47917,15.477 -13.79436,5.84911 -8.79526,-14.62093 4.63309,-2.75807 7.65243,-14.20342 z"
         id="path25324"
         inkscape:connector-curvature="0" />
      <path
         sodipodi:nodetypes="cccccccc"
         inkscape:connector-curvature="0"
         id="path25326"
         d="m 236.81181,803.90262 -10.77172,4.85691 -2.66802,17.20659 11.12271,11.46153 13.33204,-9.08953 -1.64605,-4.197 -0.88573,-14.47029 z"
         style="color:#000000;fill:#1a1a1a;fill-opacity:1;fill-rule:nonzero;stroke:none;stroke-width:0.33960077;marker:none;visibility:visible;display:inline;overflow:visible;enable-background:accumulate" />
      <path
         sodipodi:nodetypes="ccccc"
         inkscape:connector-curvature="0"
         id="path25334"
         d="m 206.08407,829.43682 8.5074,3.22229 8.30179,0.76184 -9.59231,4.54903 z"
         style="color:#000000;fill:#000000;fill-opacity:1;fill-rule:nonzero;stroke:none;stroke-width:0.5;marker:none;visibility:visible;display:inline;overflow:visible;enable-background:accumulate" />
      <path
         transform="matrix(1.0729591,0.26072418,-0.26072418,1.0729591,-117.71503,443.19618)"
         d="m 367.8125,254.48718 c 0,3.34823 -2.71427,6.0625 -6.0625,6.0625 -3.34823,0 -6.0625,-2.71427 -6.0625,-6.0625 0,-3.34822 2.71427,-6.0625 6.0625,-6.0625 3.34823,0 6.0625,2.71428 6.0625,6.0625 z"
         sodipodi:ry="6.0625"
         sodipodi:rx="6.0625"
         sodipodi:cy="254.48718"
         sodipodi:cx="361.75"
         id="path25336"
         style="color:#000000;fill:#00aa00;fill-opacity:1;fill-rule:nonzero;stroke:none;stroke-width:0.5;marker:none;visibility:visible;display:inline;overflow:visible;enable-background:accumulate"
         sodipodi:type="arc" />
      <path
         sodipodi:type="arc"
         style="color:#000000;fill:#00aa00;fill-opacity:1;fill-rule:nonzero;stroke:none;stroke-width:0.5;marker:none;visibility:visible;display:inline;overflow:visible;enable-background:accumulate"
         id="path25338"
         sodipodi:cx="361.75"
         sodipodi:cy="254.48718"
         sodipodi:rx="6.0625"
         sodipodi:ry="6.0625"
         d="m 367.8125,254.48718 c 0,3.34823 -2.71427,6.0625 -6.0625,6.0625 -3.34823,0 -6.0625,-2.71427 -6.0625,-6.0625 0,-3.34822 2.71427,-6.0625 6.0625,-6.0625 3.34823,0 6.0625,2.71428 6.0625,6.0625 z"
         transform="matrix(1.0729591,0.26072418,-0.26072418,1.0729591,-87.471,450.54534)" />
      <path
         sodipodi:type="arc"
         style="color:#000000;fill:#55d400;fill-opacity:1;fill-rule:nonzero;stroke:none;stroke-width:0.5;marker:none;visibility:visible;display:inline;overflow:visible;enable-background:accumulate"
         id="path25340"
         sodipodi:cx="361.75"
         sodipodi:cy="254.48718"
         sodipodi:rx="6.0625"
         sodipodi:ry="6.0625"
         d="m 367.8125,254.48718 c 0,3.34823 -2.71427,6.0625 -6.0625,6.0625 -3.34823,0 -6.0625,-2.71427 -6.0625,-6.0625 0,-3.34822 2.71427,-6.0625 6.0625,-6.0625 3.34823,0 6.0625,2.71428 6.0625,6.0625 z"
         transform="matrix(0.97781238,0.23760396,-0.23760396,0.97781238,-89.085754,475.30479)" />
      <path
         transform="matrix(0.90150684,0.21906206,-0.21906206,0.90150684,-65.97221,501.30351)"
         d="m 367.8125,254.48718 c 0,3.34823 -2.71427,6.0625 -6.0625,6.0625 -3.34823,0 -6.0625,-2.71427 -6.0625,-6.0625 0,-3.34822 2.71427,-6.0625 6.0625,-6.0625 3.34823,0 6.0625,2.71428 6.0625,6.0625 z"
         sodipodi:ry="6.0625"
         sodipodi:rx="6.0625"
         sodipodi:cy="254.48718"
         sodipodi:cx="361.75"
         id="path25342"
         style="color:#000000;fill:#000000;fill-opacity:1;fill-rule:nonzero;stroke:none;stroke-width:0.5;marker:none;visibility:visible;display:inline;overflow:visible;enable-background:accumulate"
         sodipodi:type="arc" />
      <path
         transform="matrix(0.95277377,0.24125452,-0.23151969,0.99283553,-51.051125,477.6664)"
         d="m 367.8125,254.48718 c 0,3.34823 -2.71427,6.0625 -6.0625,6.0625 -3.34823,0 -6.0625,-2.71427 -6.0625,-6.0625 0,-3.34822 2.71427,-6.0625 6.0625,-6.0625 3.34823,0 6.0625,2.71428 6.0625,6.0625 z"
         sodipodi:ry="6.0625"
         sodipodi:rx="6.0625"
         sodipodi:cy="254.48718"
         sodipodi:cx="361.75"
         id="path25344"
         style="color:#000000;fill:#55d400;fill-opacity:1;fill-rule:nonzero;stroke:none;stroke-width:0.5;marker:none;visibility:visible;display:inline;overflow:visible;enable-background:accumulate"
         sodipodi:type="arc" />
      <path
         sodipodi:type="arc"
         style="color:#000000;fill:#000000;fill-opacity:1;fill-rule:nonzero;stroke:none;stroke-width:0.5;marker:none;visibility:visible;display:inline;overflow:visible;enable-background:accumulate"
         id="path25346"
         sodipodi:cx="361.75"
         sodipodi:cy="254.48718"
         sodipodi:rx="6.0625"
         sodipodi:ry="6.0625"
         d="m 367.8125,254.48718 c 0,3.34823 -2.71427,6.0625 -6.0625,6.0625 -3.34823,0 -6.0625,-2.71427 -6.0625,-6.0625 0,-3.34822 2.71427,-6.0625 6.0625,-6.0625 3.34823,0 6.0625,2.71428 6.0625,6.0625 z"
         transform="matrix(0.90150684,0.21906206,-0.21906206,0.90150684,-35.72817,508.65267)" />
      <path
         inkscape:connector-curvature="0"
         style="color:#000000;fill:#ffffff;fill-opacity:1;fill-rule:nonzero;stroke:none;stroke-width:0.5;marker:none;visibility:visible;display:inline;overflow:visible;enable-background:accumulate"
         d="m 206.65324,805.81057 c -0.49394,-0.12002 -0.96629,0.0757 -1.27759,0.43526 -0.20788,-0.20858 -0.4741,-0.36378 -0.78121,-0.4384 -0.88887,-0.21599 -1.78454,0.32948 -2.00053,1.21835 -0.21599,0.88887 0.32949,1.78454 1.21835,2.00053 0.74074,0.17999 1.4828,-0.19663 1.8357,-0.8323 0.11578,0.0722 0.24622,0.13085 0.38606,0.16483 0.7037,0.17099 1.41276,-0.26084 1.58375,-0.96453 0.171,-0.70369 -0.26083,-1.41276 -0.96453,-1.58375 z"
         id="path25348" />
      <path
         inkscape:connector-curvature="0"
         id="path25350"
         d="m 236.89728,813.15973 c -0.49394,-0.12002 -0.9663,0.0757 -1.27759,0.43526 -0.20789,-0.20858 -0.4741,-0.36377 -0.78122,-0.4384 -0.88887,-0.21599 -1.78454,0.32949 -2.00053,1.21835 -0.21599,0.88887 0.32949,1.78454 1.21836,2.00053 0.74073,0.17999 1.4828,-0.19662 1.83569,-0.83229 0.11577,0.0722 0.24623,0.13084 0.38607,0.16482 0.70369,0.17099 1.41275,-0.26084 1.58374,-0.96452 0.171,-0.7037 -0.26084,-1.41276 -0.96452,-1.58376 z"
         style="color:#000000;fill:#ffffff;fill-opacity:1;fill-rule:nonzero;stroke:none;stroke-width:0.5;marker:none;visibility:visible;display:inline;overflow:visible;enable-background:accumulate" />
      <path
         sodipodi:type="arc"
         style="color:#000000;fill:none;stroke:none;stroke-width:1;marker:none;visibility:visible;display:inline;overflow:visible;enable-background:accumulate"
         id="path25552"
         sodipodi:cx="414.36456"
         sodipodi:cy="248.73532"
         sodipodi:rx="42.779961"
         sodipodi:ry="42.779961"
         d="m 457.14452,248.73532 c 0,23.62672 -19.15324,42.77996 -42.77996,42.77996 -23.62672,0 -42.77996,-19.15324 -42.77996,-42.77996 0,-23.62672 19.15324,-42.77996 42.77996,-42.77996 23.62672,0 42.77996,19.15324 42.77996,42.77996 z"
         transform="matrix(-0.97172287,-0.23612424,-0.23612424,0.97172287,681.64417,668.73241)" />
    </g>
  </g>
</svg>
