<?xml version="1.0" encoding="UTF-8" standalone="no"?>
<!-- Created with Inkscape (http://www.inkscape.org/) -->

<svg
   xmlns:dc="http://purl.org/dc/elements/1.1/"
   xmlns:cc="http://creativecommons.org/ns#"
   xmlns:rdf="http://www.w3.org/1999/02/22-rdf-syntax-ns#"
   xmlns:svg="http://www.w3.org/2000/svg"
   xmlns="http://www.w3.org/2000/svg"
   xmlns:sodipodi="http://sodipodi.sourceforge.net/DTD/sodipodi-0.dtd"
   xmlns:inkscape="http://www.inkscape.org/namespaces/inkscape"
   width="30"
   height="93"
   id="svg27647"
   version="1.1"
   inkscape:version="0.48.2 r9819"
   sodipodi:docname="digitalpanda_popupmenu_2.svg"
   inkscape:export-filename="C:\Users\sstrau\digital-panda\panda-tray\gfx\digital-panda-menu-graphic.png"
   inkscape:export-xdpi="90.102013"
   inkscape:export-ydpi="90.102013">
  <defs
     id="defs27649">
    <clipPath
       clipPathUnits="userSpaceOnUse"
       id="clipPath23209">
      <path
         style="color:#000000;fill:#999999;fill-opacity:1;fill-rule:nonzero;stroke:#000000;stroke-width:0.34386462;marker:none;visibility:visible;display:inline;overflow:visible;enable-background:accumulate"
         d="m 31.484015,271.9115 c -1.446234,8.22282 -4.780102,3.78459 -8.073292,3.83055 -3.371493,0.0471 -6.3056,4.39227 -8.796336,-3.83055 -1.685011,-5.56283 3.776395,-10.52434 8.434814,-10.52434 4.658419,0 9.441654,4.79977 8.434814,10.52434 z"
         id="path23211"
         inkscape:connector-curvature="0"
         sodipodi:nodetypes="sssss" />
    </clipPath>
    <clipPath
       clipPathUnits="userSpaceOnUse"
       id="clipPath23205">
      <path
         style="color:#000000;fill:#999999;fill-opacity:1;fill-rule:nonzero;stroke:#000000;stroke-width:0.34386462;marker:none;visibility:visible;display:inline;overflow:visible;enable-background:accumulate"
         d="m 31.484015,271.9115 c -1.446234,8.22282 -4.780102,3.78459 -8.073292,3.83055 -3.371493,0.0471 -6.3056,4.39227 -8.796336,-3.83055 -1.685011,-5.56283 3.776395,-10.52434 8.434814,-10.52434 4.658419,0 9.441654,4.79977 8.434814,10.52434 z"
         id="path23207"
         inkscape:connector-curvature="0"
         sodipodi:nodetypes="sssss" />
    </clipPath>
    <clipPath
       clipPathUnits="userSpaceOnUse"
       id="clipPath23201">
      <path
         style="color:#000000;fill:#999999;fill-opacity:1;fill-rule:nonzero;stroke:#000000;stroke-width:0.34386462;marker:none;visibility:visible;display:inline;overflow:visible;enable-background:accumulate"
         d="m 31.484015,271.9115 c -1.446234,8.22282 -4.780102,3.78459 -8.073292,3.83055 -3.371493,0.0471 -6.3056,4.39227 -8.796336,-3.83055 -1.685011,-5.56283 3.776395,-10.52434 8.434814,-10.52434 4.658419,0 9.441654,4.79977 8.434814,10.52434 z"
         id="path23203"
         inkscape:connector-curvature="0"
         sodipodi:nodetypes="sssss" />
    </clipPath>
    <clipPath
       clipPathUnits="userSpaceOnUse"
       id="clipPath23197">
      <path
         style="color:#000000;fill:#999999;fill-opacity:1;fill-rule:nonzero;stroke:#000000;stroke-width:0.34386462;marker:none;visibility:visible;display:inline;overflow:visible;enable-background:accumulate"
         d="m 31.484015,271.9115 c -1.446234,8.22282 -4.780102,3.78459 -8.073292,3.83055 -3.371493,0.0471 -6.3056,4.39227 -8.796336,-3.83055 -1.685011,-5.56283 3.776395,-10.52434 8.434814,-10.52434 4.658419,0 9.441654,4.79977 8.434814,10.52434 z"
         id="path23199"
         inkscape:connector-curvature="0"
         sodipodi:nodetypes="sssss" />
    </clipPath>
    <clipPath
       clipPathUnits="userSpaceOnUse"
       id="clipPath23193">
      <path
         style="color:#000000;fill:#999999;fill-opacity:1;fill-rule:nonzero;stroke:#000000;stroke-width:0.34386462;marker:none;visibility:visible;display:inline;overflow:visible;enable-background:accumulate"
         d="m 31.484015,271.9115 c -1.446234,8.22282 -4.780102,3.78459 -8.073292,3.83055 -3.371493,0.0471 -6.3056,4.39227 -8.796336,-3.83055 -1.685011,-5.56283 3.776395,-10.52434 8.434814,-10.52434 4.658419,0 9.441654,4.79977 8.434814,10.52434 z"
         id="path23195"
         inkscape:connector-curvature="0"
         sodipodi:nodetypes="sssss" />
    </clipPath>
    <clipPath
       clipPathUnits="userSpaceOnUse"
       id="clipPath23189">
      <path
         style="color:#000000;fill:#999999;fill-opacity:1;fill-rule:nonzero;stroke:#000000;stroke-width:0.34386462;marker:none;visibility:visible;display:inline;overflow:visible;enable-background:accumulate"
         d="m 31.484015,271.9115 c -1.446234,8.22282 -4.780102,3.78459 -8.073292,3.83055 -3.371493,0.0471 -6.3056,4.39227 -8.796336,-3.83055 -1.685011,-5.56283 3.776395,-10.52434 8.434814,-10.52434 4.658419,0 9.441654,4.79977 8.434814,10.52434 z"
         id="path23191"
         inkscape:connector-curvature="0"
         sodipodi:nodetypes="sssss" />
    </clipPath>
    <clipPath
       clipPathUnits="userSpaceOnUse"
       id="clipPath23185">
      <path
         style="color:#000000;fill:#999999;fill-opacity:1;fill-rule:nonzero;stroke:#000000;stroke-width:0.34386462;marker:none;visibility:visible;display:inline;overflow:visible;enable-background:accumulate"
         d="m 31.484015,271.9115 c -1.446234,8.22282 -4.780102,3.78459 -8.073292,3.83055 -3.371493,0.0471 -6.3056,4.39227 -8.796336,-3.83055 -1.685011,-5.56283 3.776395,-10.52434 8.434814,-10.52434 4.658419,0 9.441654,4.79977 8.434814,10.52434 z"
         id="path23187"
         inkscape:connector-curvature="0"
         sodipodi:nodetypes="sssss" />
    </clipPath>
    <clipPath
       clipPathUnits="userSpaceOnUse"
       id="clipPath27901">
      <path
         style="color:#000000;fill:#999999;fill-opacity:1;fill-rule:nonzero;stroke:#000000;stroke-width:0.34386462;marker:none;visibility:visible;display:inline;overflow:visible;enable-background:accumulate"
         d="m 31.484015,271.9115 c -1.446234,8.22282 -4.780102,3.78459 -8.073292,3.83055 -3.371493,0.0471 -6.3056,4.39227 -8.796336,-3.83055 -1.685011,-5.56283 3.776395,-10.52434 8.434814,-10.52434 4.658419,0 9.441654,4.79977 8.434814,10.52434 z"
         id="path27903"
         inkscape:connector-curvature="0"
         sodipodi:nodetypes="sssss" />
    </clipPath>
    <clipPath
       clipPathUnits="userSpaceOnUse"
       id="clipPath27905">
      <path
         style="color:#000000;fill:#999999;fill-opacity:1;fill-rule:nonzero;stroke:#000000;stroke-width:0.34386462;marker:none;visibility:visible;display:inline;overflow:visible;enable-background:accumulate"
         d="m 31.484015,271.9115 c -1.446234,8.22282 -4.780102,3.78459 -8.073292,3.83055 -3.371493,0.0471 -6.3056,4.39227 -8.796336,-3.83055 -1.685011,-5.56283 3.776395,-10.52434 8.434814,-10.52434 4.658419,0 9.441654,4.79977 8.434814,10.52434 z"
         id="path27907"
         inkscape:connector-curvature="0"
         sodipodi:nodetypes="sssss" />
    </clipPath>
    <clipPath
       clipPathUnits="userSpaceOnUse"
       id="clipPath27909">
      <path
         style="color:#000000;fill:#999999;fill-opacity:1;fill-rule:nonzero;stroke:#000000;stroke-width:0.34386462;marker:none;visibility:visible;display:inline;overflow:visible;enable-background:accumulate"
         d="m 31.484015,271.9115 c -1.446234,8.22282 -4.780102,3.78459 -8.073292,3.83055 -3.371493,0.0471 -6.3056,4.39227 -8.796336,-3.83055 -1.685011,-5.56283 3.776395,-10.52434 8.434814,-10.52434 4.658419,0 9.441654,4.79977 8.434814,10.52434 z"
         id="path27911"
         inkscape:connector-curvature="0"
         sodipodi:nodetypes="sssss" />
    </clipPath>
    <clipPath
       clipPathUnits="userSpaceOnUse"
       id="clipPath27913">
      <path
         style="color:#000000;fill:#999999;fill-opacity:1;fill-rule:nonzero;stroke:#000000;stroke-width:0.34386462;marker:none;visibility:visible;display:inline;overflow:visible;enable-background:accumulate"
         d="m 31.484015,271.9115 c -1.446234,8.22282 -4.780102,3.78459 -8.073292,3.83055 -3.371493,0.0471 -6.3056,4.39227 -8.796336,-3.83055 -1.685011,-5.56283 3.776395,-10.52434 8.434814,-10.52434 4.658419,0 9.441654,4.79977 8.434814,10.52434 z"
         id="path27915"
         inkscape:connector-curvature="0"
         sodipodi:nodetypes="sssss" />
    </clipPath>
    <clipPath
       clipPathUnits="userSpaceOnUse"
       id="clipPath27917">
      <path
         style="color:#000000;fill:#999999;fill-opacity:1;fill-rule:nonzero;stroke:#000000;stroke-width:0.34386462;marker:none;visibility:visible;display:inline;overflow:visible;enable-background:accumulate"
         d="m 31.484015,271.9115 c -1.446234,8.22282 -4.780102,3.78459 -8.073292,3.83055 -3.371493,0.0471 -6.3056,4.39227 -8.796336,-3.83055 -1.685011,-5.56283 3.776395,-10.52434 8.434814,-10.52434 4.658419,0 9.441654,4.79977 8.434814,10.52434 z"
         id="path27919"
         inkscape:connector-curvature="0"
         sodipodi:nodetypes="sssss" />
    </clipPath>
    <clipPath
       clipPathUnits="userSpaceOnUse"
       id="clipPath27921">
      <path
         style="color:#000000;fill:#999999;fill-opacity:1;fill-rule:nonzero;stroke:#000000;stroke-width:0.34386462;marker:none;visibility:visible;display:inline;overflow:visible;enable-background:accumulate"
         d="m 31.484015,271.9115 c -1.446234,8.22282 -4.780102,3.78459 -8.073292,3.83055 -3.371493,0.0471 -6.3056,4.39227 -8.796336,-3.83055 -1.685011,-5.56283 3.776395,-10.52434 8.434814,-10.52434 4.658419,0 9.441654,4.79977 8.434814,10.52434 z"
         id="path27923"
         inkscape:connector-curvature="0"
         sodipodi:nodetypes="sssss" />
    </clipPath>
    <clipPath
       clipPathUnits="userSpaceOnUse"
       id="clipPath27925">
      <path
         style="color:#000000;fill:#999999;fill-opacity:1;fill-rule:nonzero;stroke:#000000;stroke-width:0.34386462;marker:none;visibility:visible;display:inline;overflow:visible;enable-background:accumulate"
         d="m 31.484015,271.9115 c -1.446234,8.22282 -4.780102,3.78459 -8.073292,3.83055 -3.371493,0.0471 -6.3056,4.39227 -8.796336,-3.83055 -1.685011,-5.56283 3.776395,-10.52434 8.434814,-10.52434 4.658419,0 9.441654,4.79977 8.434814,10.52434 z"
         id="path27927"
         inkscape:connector-curvature="0"
         sodipodi:nodetypes="sssss" />
    </clipPath>
  </defs>
  <sodipodi:namedview
     id="base"
     pagecolor="#ffffff"
     bordercolor="#666666"
     borderopacity="1.0"
     inkscape:pageopacity="0.0"
     inkscape:pageshadow="2"
     inkscape:zoom="40.876145"
     inkscape:cx="11.465882"
     inkscape:cy="9.7246448"
     inkscape:document-units="px"
     inkscape:current-layer="layer1"
     showgrid="false"
     inkscape:window-width="1280"
     inkscape:window-height="962"
     inkscape:window-x="-8"
     inkscape:window-y="-8"
     inkscape:window-maximized="1"
     showguides="true"
     inkscape:guide-bbox="true" />
  <metadata
     id="metadata27652">
    <rdf:RDF>
      <cc:Work
         rdf:about="">
        <dc:format>image/svg+xml</dc:format>
        <dc:type
           rdf:resource="http://purl.org/dc/dcmitype/StillImage" />
        <dc:title></dc:title>
      </cc:Work>
    </rdf:RDF>
  </metadata>
  <g
     inkscape:label="Layer 1"
     inkscape:groupmode="layer"
     id="layer1"
     transform="translate(0,-959.36217)">
    <rect
       y="959.46948"
       x="-0.0039607142"
       height="92.894707"
       width="30"
       id="rect27274"
       style="color:#000000;fill:#5aa02c;fill-opacity:1;fill-rule:nonzero;stroke:none;stroke-width:1;marker:none;visibility:visible;display:inline;overflow:visible;enable-background:accumulate" />
    <path
       transform="matrix(0.38948831,0.09464389,-0.09464389,0.38948831,-89.758054,920.0573)"
       d="m 314.5,203.23718 c 0,8.76752 -7.10748,15.875 -15.875,15.875 -8.76752,0 -15.875,-7.10748 -15.875,-15.875 0,-8.76752 7.10748,-15.875 15.875,-15.875 8.76752,0 15.875,7.10748 15.875,15.875 z"
       sodipodi:ry="15.875"
       sodipodi:rx="15.875"
       sodipodi:cy="203.23718"
       sodipodi:cx="298.625"
       id="path28524"
       style="color:#000000;fill:#333333;fill-opacity:1;fill-rule:nonzero;stroke:#000000;stroke-width:0.70165747;stroke-miterlimit:4;stroke-dasharray:none;marker:none;visibility:visible;display:inline;overflow:visible;enable-background:accumulate"
       sodipodi:type="arc" />
    <path
       transform="matrix(0.30071531,0.07307245,-0.07307245,0.30071531,-66.687715,946.05741)"
       d="m 314.5,203.23718 c 0,8.76752 -7.10748,15.875 -15.875,15.875 -8.76752,0 -15.875,-7.10748 -15.875,-15.875 0,-8.76752 7.10748,-15.875 15.875,-15.875 8.76752,0 15.875,7.10748 15.875,15.875 z"
       sodipodi:ry="15.875"
       sodipodi:rx="15.875"
       sodipodi:cy="203.23718"
       sodipodi:cx="298.625"
       id="path28526"
       style="color:#000000;fill:#1a1a1a;fill-opacity:1;fill-rule:nonzero;stroke:#000000;stroke-width:0.35082871;stroke-miterlimit:4;stroke-dasharray:none;marker:none;visibility:visible;display:inline;overflow:visible;enable-background:accumulate"
       sodipodi:type="arc" />
    <g
       transform="matrix(0.27328737,0.06640759,-0.06640759,0.27328737,-40.176837,959.67431)"
       id="g28528">
      <path
         inkscape:connector-curvature="0"
         id="path28530"
         d="m 223.23191,181.68175 9.6148,8.1241"
         style="color:#000000;fill:#333333;fill-opacity:1;fill-rule:nonzero;stroke:#000000;stroke-width:0.30000001;stroke-miterlimit:4;stroke-opacity:1;stroke-dasharray:none;stroke-dashoffset:0;marker:none;visibility:visible;display:inline;overflow:visible;enable-background:accumulate" />
      <path
         style="color:#000000;fill:#333333;fill-opacity:1;fill-rule:nonzero;stroke:#000000;stroke-width:0.30000001;stroke-miterlimit:4;stroke-opacity:1;stroke-dasharray:none;stroke-dashoffset:0;marker:none;visibility:visible;display:inline;overflow:visible;enable-background:accumulate"
         d="m 219.34503,182.62623 9.6148,8.1241"
         id="path28532"
         inkscape:connector-curvature="0" />
      <path
         inkscape:connector-curvature="0"
         id="path28534"
         d="m 215.69427,184.54243 9.6148,8.1241"
         style="color:#000000;fill:#333333;fill-opacity:1;fill-rule:nonzero;stroke:#000000;stroke-width:0.30000001;stroke-miterlimit:4;stroke-opacity:1;stroke-dasharray:none;stroke-dashoffset:0;marker:none;visibility:visible;display:inline;overflow:visible;enable-background:accumulate" />
      <path
         inkscape:connector-curvature="0"
         id="path28536"
         d="m 213.03382,186.86051 9.6148,8.1241"
         style="color:#000000;fill:#333333;fill-opacity:1;fill-rule:nonzero;stroke:#000000;stroke-width:0.30000001;stroke-miterlimit:4;stroke-opacity:1;stroke-dasharray:none;stroke-dashoffset:0;marker:none;visibility:visible;display:inline;overflow:visible;enable-background:accumulate" />
      <path
         inkscape:connector-curvature="0"
         id="path28538"
         d="m 210.7961,189.72376 9.6148,8.1241"
         style="color:#000000;fill:#333333;fill-opacity:1;fill-rule:nonzero;stroke:#000000;stroke-width:0.30000001;stroke-miterlimit:4;stroke-opacity:1;stroke-dasharray:none;stroke-dashoffset:0;marker:none;visibility:visible;display:inline;overflow:visible;enable-background:accumulate" />
      <path
         inkscape:connector-curvature="0"
         id="path28540"
         d="m 208.88609,193.28054 9.6148,8.1241"
         style="color:#000000;fill:#333333;fill-opacity:1;fill-rule:nonzero;stroke:#000000;stroke-width:0.30000001;stroke-miterlimit:4;stroke-opacity:1;stroke-dasharray:none;stroke-dashoffset:0;marker:none;visibility:visible;display:inline;overflow:visible;enable-background:accumulate" />
      <path
         style="color:#000000;fill:#333333;fill-opacity:1;fill-rule:nonzero;stroke:#000000;stroke-width:0.30000001;stroke-miterlimit:4;stroke-opacity:1;stroke-dasharray:none;stroke-dashoffset:0;marker:none;visibility:visible;display:inline;overflow:visible;enable-background:accumulate"
         d="m 208.12776,197.73995 9.6148,8.1241"
         id="path28542"
         inkscape:connector-curvature="0" />
    </g>
    <g
       transform="matrix(0.27328737,0.06640759,-0.06640759,0.27328737,-40.176837,959.67431)"
       id="g28544">
      <path
         inkscape:connector-curvature="0"
         id="path28546"
         d="m 223.23191,181.68175 9.6148,8.1241"
         style="color:#000000;fill:#333333;fill-opacity:1;fill-rule:nonzero;stroke:#000000;stroke-width:0.30000001;stroke-miterlimit:4;stroke-opacity:1;stroke-dasharray:none;stroke-dashoffset:0;marker:none;visibility:visible;display:inline;overflow:visible;enable-background:accumulate" />
      <path
         style="color:#000000;fill:#333333;fill-opacity:1;fill-rule:nonzero;stroke:#000000;stroke-width:0.30000001;stroke-miterlimit:4;stroke-opacity:1;stroke-dasharray:none;stroke-dashoffset:0;marker:none;visibility:visible;display:inline;overflow:visible;enable-background:accumulate"
         d="m 219.34503,182.62623 9.6148,8.1241"
         id="path28548"
         inkscape:connector-curvature="0" />
      <path
         inkscape:connector-curvature="0"
         id="path28550"
         d="m 215.69427,184.54243 9.6148,8.1241"
         style="color:#000000;fill:#333333;fill-opacity:1;fill-rule:nonzero;stroke:#000000;stroke-width:0.30000001;stroke-miterlimit:4;stroke-opacity:1;stroke-dasharray:none;stroke-dashoffset:0;marker:none;visibility:visible;display:inline;overflow:visible;enable-background:accumulate" />
      <path
         inkscape:connector-curvature="0"
         id="path28552"
         d="m 213.03382,186.86051 9.6148,8.1241"
         style="color:#000000;fill:#333333;fill-opacity:1;fill-rule:nonzero;stroke:#000000;stroke-width:0.30000001;stroke-miterlimit:4;stroke-opacity:1;stroke-dasharray:none;stroke-dashoffset:0;marker:none;visibility:visible;display:inline;overflow:visible;enable-background:accumulate" />
      <path
         inkscape:connector-curvature="0"
         id="path28554"
         d="m 210.7961,189.72376 9.6148,8.1241"
         style="color:#000000;fill:#333333;fill-opacity:1;fill-rule:nonzero;stroke:#000000;stroke-width:0.30000001;stroke-miterlimit:4;stroke-opacity:1;stroke-dasharray:none;stroke-dashoffset:0;marker:none;visibility:visible;display:inline;overflow:visible;enable-background:accumulate" />
      <path
         inkscape:connector-curvature="0"
         id="path28556"
         d="m 208.88609,193.28054 9.6148,8.1241"
         style="color:#000000;fill:#333333;fill-opacity:1;fill-rule:nonzero;stroke:#000000;stroke-width:0.30000001;stroke-miterlimit:4;stroke-opacity:1;stroke-dasharray:none;stroke-dashoffset:0;marker:none;visibility:visible;display:inline;overflow:visible;enable-background:accumulate" />
      <path
         style="color:#000000;fill:#333333;fill-opacity:1;fill-rule:nonzero;stroke:#000000;stroke-width:0.30000001;stroke-miterlimit:4;stroke-opacity:1;stroke-dasharray:none;stroke-dashoffset:0;marker:none;visibility:visible;display:inline;overflow:visible;enable-background:accumulate"
         d="m 208.12776,197.73995 9.6148,8.1241"
         id="path28558"
         inkscape:connector-curvature="0" />
    </g>
    <path
       transform="matrix(0.38948831,0.09464389,-0.09464389,0.38948831,-74.173016,925.00209)"
       d="m 314.5,203.23718 c 0,8.76752 -7.10748,15.875 -15.875,15.875 -8.76752,0 -15.875,-7.10748 -15.875,-15.875 0,-8.76752 7.10748,-15.875 15.875,-15.875 8.76752,0 15.875,7.10748 15.875,15.875 z"
       sodipodi:ry="15.875"
       sodipodi:rx="15.875"
       sodipodi:cy="203.23718"
       sodipodi:cx="298.625"
       id="path28560"
       style="color:#000000;fill:#333333;fill-opacity:1;fill-rule:nonzero;stroke:#000000;stroke-width:0.70165747;stroke-miterlimit:4;stroke-dasharray:none;marker:none;visibility:visible;display:inline;overflow:visible;enable-background:accumulate"
       sodipodi:type="arc" />
    <path
       sodipodi:type="arc"
       style="color:#000000;fill:#1a1a1a;fill-opacity:1;fill-rule:nonzero;stroke:#000000;stroke-width:0.35082871;stroke-miterlimit:4;stroke-dasharray:none;marker:none;visibility:visible;display:inline;overflow:visible;enable-background:accumulate"
       id="path28562"
       sodipodi:cx="298.625"
       sodipodi:cy="203.23718"
       sodipodi:rx="15.875"
       sodipodi:ry="15.875"
       d="m 314.5,203.23718 c 0,8.76752 -7.10748,15.875 -15.875,15.875 -8.76752,0 -15.875,-7.10748 -15.875,-15.875 0,-8.76752 7.10748,-15.875 15.875,-15.875 8.76752,0 15.875,7.10748 15.875,15.875 z"
       transform="matrix(0.30071531,0.07307245,-0.07307245,0.30071531,-52.965912,949.91045)" />
    <g
       transform="matrix(-0.14516607,0.24087915,-0.24087915,-0.14516607,102.62433,1007.3989)"
       id="g28564">
      <path
         style="color:#000000;fill:#333333;fill-opacity:1;fill-rule:nonzero;stroke:#000000;stroke-width:0.30000001;stroke-miterlimit:4;stroke-opacity:1;stroke-dasharray:none;stroke-dashoffset:0;marker:none;visibility:visible;display:inline;overflow:visible;enable-background:accumulate"
         d="m 223.23191,181.68175 9.6148,8.1241"
         id="path28566"
         inkscape:connector-curvature="0" />
      <path
         inkscape:connector-curvature="0"
         id="path28568"
         d="m 219.34503,182.62623 9.6148,8.1241"
         style="color:#000000;fill:#333333;fill-opacity:1;fill-rule:nonzero;stroke:#000000;stroke-width:0.30000001;stroke-miterlimit:4;stroke-opacity:1;stroke-dasharray:none;stroke-dashoffset:0;marker:none;visibility:visible;display:inline;overflow:visible;enable-background:accumulate" />
      <path
         style="color:#000000;fill:#333333;fill-opacity:1;fill-rule:nonzero;stroke:#000000;stroke-width:0.30000001;stroke-miterlimit:4;stroke-opacity:1;stroke-dasharray:none;stroke-dashoffset:0;marker:none;visibility:visible;display:inline;overflow:visible;enable-background:accumulate"
         d="m 215.69427,184.54243 9.6148,8.1241"
         id="path28570"
         inkscape:connector-curvature="0" />
      <path
         style="color:#000000;fill:#333333;fill-opacity:1;fill-rule:nonzero;stroke:#000000;stroke-width:0.30000001;stroke-miterlimit:4;stroke-opacity:1;stroke-dasharray:none;stroke-dashoffset:0;marker:none;visibility:visible;display:inline;overflow:visible;enable-background:accumulate"
         d="m 213.03382,186.86051 9.6148,8.1241"
         id="path28572"
         inkscape:connector-curvature="0" />
      <path
         style="color:#000000;fill:#333333;fill-opacity:1;fill-rule:nonzero;stroke:#000000;stroke-width:0.30000001;stroke-miterlimit:4;stroke-opacity:1;stroke-dasharray:none;stroke-dashoffset:0;marker:none;visibility:visible;display:inline;overflow:visible;enable-background:accumulate"
         d="m 210.7961,189.72376 9.6148,8.1241"
         id="path28574"
         inkscape:connector-curvature="0" />
      <path
         style="color:#000000;fill:#333333;fill-opacity:1;fill-rule:nonzero;stroke:#000000;stroke-width:0.30000001;stroke-miterlimit:4;stroke-opacity:1;stroke-dasharray:none;stroke-dashoffset:0;marker:none;visibility:visible;display:inline;overflow:visible;enable-background:accumulate"
         d="m 208.88609,193.28054 9.6148,8.1241"
         id="path28576"
         inkscape:connector-curvature="0" />
      <path
         inkscape:connector-curvature="0"
         id="path28578"
         d="m 208.12776,197.73995 9.6148,8.1241"
         style="color:#000000;fill:#333333;fill-opacity:1;fill-rule:nonzero;stroke:#000000;stroke-width:0.30000001;stroke-miterlimit:4;stroke-opacity:1;stroke-dasharray:none;stroke-dashoffset:0;marker:none;visibility:visible;display:inline;overflow:visible;enable-background:accumulate" />
    </g>
    <path
       transform="matrix(-0.27328737,-0.06640759,-0.06640759,0.27328737,143.29458,995.47109)"
       d="m 457.14452,248.73532 c 0,23.62672 -19.15324,42.77996 -42.77996,42.77996 -23.62672,0 -42.77996,-19.15324 -42.77996,-42.77996 0,-23.62672 19.15324,-42.77996 42.77996,-42.77996 23.62672,0 42.77996,19.15324 42.77996,42.77996 z"
       sodipodi:ry="42.779961"
       sodipodi:rx="42.779961"
       sodipodi:cy="248.73532"
       sodipodi:cx="414.36456"
       id="path28580"
       style="color:#000000;fill:#ffffff;fill-opacity:1;fill-rule:nonzero;stroke:none;stroke-width:1;marker:none;visibility:visible;display:inline;overflow:visible;enable-background:accumulate"
       sodipodi:type="arc" />
    <path
       sodipodi:nodetypes="cccccccc"
       style="color:#000000;fill:#1a1a1a;fill-opacity:1;fill-rule:nonzero;stroke:none;stroke-width:0.33960077;marker:none;visibility:visible;display:inline;overflow:visible;enable-background:accumulate"
       d="m 10.5164,1031.1133 1.855903,3.231 -1.822202,4.3527 -3.8795262,1.6451 -2.4735791,-4.112 1.3030103,-0.7757 2.1521697,-3.9946 z"
       id="path28588"
       inkscape:connector-curvature="0" />
    <path
       sodipodi:nodetypes="cccccccc"
       inkscape:connector-curvature="0"
       id="path28590"
       d="m 18.189911,1033.4864 -3.029439,1.3659 -0.750354,4.8392 3.128151,3.2234 3.749503,-2.5563 -0.462935,-1.1804 -0.249103,-4.0696 z"
       style="color:#000000;fill:#1a1a1a;fill-opacity:1;fill-rule:nonzero;stroke:none;stroke-width:0.33960077;marker:none;visibility:visible;display:inline;overflow:visible;enable-background:accumulate" />
    <path
       transform="matrix(0.30175905,0.07332608,-0.07332608,0.30175905,-81.517229,932.04128)"
       d="m 367.8125,254.48718 c 0,3.34823 -2.71427,6.0625 -6.0625,6.0625 -3.34823,0 -6.0625,-2.71427 -6.0625,-6.0625 0,-3.34822 2.71427,-6.0625 6.0625,-6.0625 3.34823,0 6.0625,2.71428 6.0625,6.0625 z"
       sodipodi:ry="6.0625"
       sodipodi:rx="6.0625"
       sodipodi:cy="254.48718"
       sodipodi:cx="361.75"
       id="path28600"
       style="color:#000000;fill:#00aa00;fill-opacity:1;fill-rule:nonzero;stroke:none;stroke-width:0.5;marker:none;visibility:visible;display:inline;overflow:visible;enable-background:accumulate"
       sodipodi:type="arc" />
    <path
       sodipodi:type="arc"
       style="color:#000000;fill:#00aa00;fill-opacity:1;fill-rule:nonzero;stroke:none;stroke-width:0.5;marker:none;visibility:visible;display:inline;overflow:visible;enable-background:accumulate"
       id="path28602"
       sodipodi:cx="361.75"
       sodipodi:cy="254.48718"
       sodipodi:rx="6.0625"
       sodipodi:ry="6.0625"
       d="m 367.8125,254.48718 c 0,3.34823 -2.71427,6.0625 -6.0625,6.0625 -3.34823,0 -6.0625,-2.71427 -6.0625,-6.0625 0,-3.34822 2.71427,-6.0625 6.0625,-6.0625 3.34823,0 6.0625,2.71428 6.0625,6.0625 z"
       transform="matrix(0.30175905,0.07332608,-0.07332608,0.30175905,-73.011397,934.10815)" />
    <path
       sodipodi:type="arc"
       style="color:#000000;fill:#55d400;fill-opacity:1;fill-rule:nonzero;stroke:none;stroke-width:0.5;marker:none;visibility:visible;display:inline;overflow:visible;enable-background:accumulate"
       id="path28604"
       sodipodi:cx="361.75"
       sodipodi:cy="254.48718"
       sodipodi:rx="6.0625"
       sodipodi:ry="6.0625"
       d="m 367.8125,254.48718 c 0,3.34823 -2.71427,6.0625 -6.0625,6.0625 -3.34823,0 -6.0625,-2.71427 -6.0625,-6.0625 0,-3.34822 2.71427,-6.0625 6.0625,-6.0625 3.34823,0 6.0625,2.71428 6.0625,6.0625 z"
       transform="matrix(0.27499998,0.06682374,-0.06682374,0.27499998,-73.46553,941.0715)" />
    <path
       transform="matrix(0.25353981,0.06160902,-0.06160902,0.25353981,-66.965076,948.38338)"
       d="m 367.8125,254.48718 c 0,3.34823 -2.71427,6.0625 -6.0625,6.0625 -3.34823,0 -6.0625,-2.71427 -6.0625,-6.0625 0,-3.34822 2.71427,-6.0625 6.0625,-6.0625 3.34823,0 6.0625,2.71428 6.0625,6.0625 z"
       sodipodi:ry="6.0625"
       sodipodi:rx="6.0625"
       sodipodi:cy="254.48718"
       sodipodi:cx="361.75"
       id="path28606"
       style="color:#000000;fill:#000000;fill-opacity:1;fill-rule:nonzero;stroke:none;stroke-width:0.5;marker:none;visibility:visible;display:inline;overflow:visible;enable-background:accumulate"
       sodipodi:type="arc" />
    <path
       transform="matrix(0.26795812,0.06785043,-0.0651126,0.27922509,-62.76867,941.73568)"
       d="m 367.8125,254.48718 c 0,3.34823 -2.71427,6.0625 -6.0625,6.0625 -3.34823,0 -6.0625,-2.71427 -6.0625,-6.0625 0,-3.34822 2.71427,-6.0625 6.0625,-6.0625 3.34823,0 6.0625,2.71428 6.0625,6.0625 z"
       sodipodi:ry="6.0625"
       sodipodi:rx="6.0625"
       sodipodi:cy="254.48718"
       sodipodi:cx="361.75"
       id="path28608"
       style="color:#000000;fill:#55d400;fill-opacity:1;fill-rule:nonzero;stroke:none;stroke-width:0.5;marker:none;visibility:visible;display:inline;overflow:visible;enable-background:accumulate"
       sodipodi:type="arc" />
    <path
       sodipodi:type="arc"
       style="color:#000000;fill:#000000;fill-opacity:1;fill-rule:nonzero;stroke:none;stroke-width:0.5;marker:none;visibility:visible;display:inline;overflow:visible;enable-background:accumulate"
       id="path28610"
       sodipodi:cx="361.75"
       sodipodi:cy="254.48718"
       sodipodi:rx="6.0625"
       sodipodi:ry="6.0625"
       d="m 367.8125,254.48718 c 0,3.34823 -2.71427,6.0625 -6.0625,6.0625 -3.34823,0 -6.0625,-2.71427 -6.0625,-6.0625 0,-3.34822 2.71427,-6.0625 6.0625,-6.0625 3.34823,0 6.0625,2.71428 6.0625,6.0625 z"
       transform="matrix(0.25353981,0.06160902,-0.06160902,0.25353981,-58.459242,950.45026)" />
    <path
       inkscape:connector-curvature="0"
       style="color:#000000;fill:#ffffff;fill-opacity:1;fill-rule:nonzero;stroke:none;stroke-width:0.5;marker:none;visibility:visible;display:inline;overflow:visible;enable-background:accumulate"
       d="m 9.7081134,1034.023 c -0.1389157,-0.034 -0.2717594,0.021 -0.3593094,0.1224 -0.058464,-0.059 -0.1333359,-0.1023 -0.2197076,-0.1233 -0.2499858,-0.061 -0.501884,0.093 -0.5626291,0.3426 -0.060745,0.25 0.092666,0.5019 0.3426488,0.5627 0.2083258,0.051 0.4170227,-0.055 0.5162723,-0.2341 0.032562,0.02 0.069247,0.037 0.1085756,0.046 0.1979086,0.048 0.3973246,-0.073 0.4454139,-0.2712 0.048092,-0.1979 -0.073356,-0.3974 -0.2712645,-0.4454 z"
       id="path28612" />
    <path
       inkscape:connector-curvature="0"
       id="path28614"
       d="m 18.213948,1036.0898 c -0.138916,-0.034 -0.271762,0.021 -0.359309,0.1224 -0.05847,-0.059 -0.133336,-0.1023 -0.219711,-0.1232 -0.249985,-0.061 -0.501884,0.093 -0.562629,0.3426 -0.06075,0.25 0.09267,0.5019 0.342652,0.5626 0.208323,0.051 0.417023,-0.055 0.516269,-0.234 0.03256,0.02 0.06925,0.037 0.108579,0.046 0.197905,0.048 0.397322,-0.073 0.445411,-0.2712 0.04809,-0.198 -0.07336,-0.3974 -0.271262,-0.4455 z"
       style="color:#000000;fill:#ffffff;fill-opacity:1;fill-rule:nonzero;stroke:none;stroke-width:0.5;marker:none;visibility:visible;display:inline;overflow:visible;enable-background:accumulate" />
    <path
       sodipodi:type="arc"
       style="color:#000000;fill:none;stroke:none;stroke-width:1;marker:none;visibility:visible;display:inline;overflow:visible;enable-background:accumulate"
       id="path28816"
       sodipodi:cx="414.36456"
       sodipodi:cy="248.73532"
       sodipodi:rx="42.779961"
       sodipodi:ry="42.779961"
       d="m 457.14452,248.73532 c 0,23.62672 -19.15324,42.77996 -42.77996,42.77996 -23.62672,0 -42.77996,-19.15324 -42.77996,-42.77996 0,-23.62672 19.15324,-42.77996 42.77996,-42.77996 23.62672,0 42.77996,19.15324 42.77996,42.77996 z"
       transform="matrix(-0.27328737,-0.06640759,-0.06640759,0.27328737,143.29458,995.47109)" />
    <path
       sodipodi:nodetypes="cccsaasccccc"
       inkscape:connector-curvature="0"
       id="path26651"
       d="m 11.573356,1042.0064 -0.861947,2.6807 -2.5030079,-0.7249 c 0,0 -2.9585247,-2.3945 -2.9544914,-2.4111 0.00403,-0.017 1.4316402,2.4146 2.5502515,3.1909 0.8788539,0.6099 2.0081907,0.755 3.0495368,0.9999 0.87442,0.2057 1.768244,0.3953 2.666499,0.3898 1.531935,-0.01 4.149349,-1.6943 4.149349,-1.6943 l -4.009019,0.851 -2.256895,-0.3977 0.516949,-2.81 z"
       style="color:#000000;fill:#1a1a1a;fill-opacity:1;fill-rule:nonzero;stroke:none;stroke-width:0.5;marker:none;visibility:visible;display:inline;overflow:visible;enable-background:accumulate" />
    <path
       sodipodi:nodetypes="sssss"
       inkscape:connector-curvature="0"
       id="path28598"
       d="m 9.54804,1040.6676 c 0.530576,-0.6677 1.561632,0.7144 2.392621,0.9062 0.761524,0.1757 2.152962,-0.5458 2.334796,0.2143 0.256431,1.0719 -1.721429,1.9892 -2.79941,1.7596 -1.129938,-0.2407 -2.6467542,-1.9756 -1.928007,-2.8801 z"
       style="color:#000000;fill:#000000;fill-opacity:1;fill-rule:nonzero;stroke:none;stroke-width:0.5;marker:none;visibility:visible;display:inline;overflow:visible;enable-background:accumulate" />
    <g
       id="g26400"
       transform="matrix(0.19345521,0,0,0.19345521,40.581562,983.17371)">
      <g
         transform="translate(-89.024386,-567.10408)"
         id="g25074" />
    </g>
    <g
       transform="matrix(0,-1.3523872,1.3523872,0,-5.0489232,-370.46844)"
       style="font-size:14.16021442px;font-style:normal;font-variant:normal;font-weight:normal;font-stretch:normal;text-align:start;line-height:93.00000072%;writing-mode:lr-tb;text-anchor:start;color:#000000;fill:#333333;fill-opacity:1;fill-rule:nonzero;stroke:none;stroke-width:0.5;marker:none;visibility:visible;display:inline;overflow:visible;enable-background:accumulate;font-family:Bimini;-inkscape-font-specification:Bimini"
       id="text27293">
      <path
         d="m -1017.0455,13.228156 0,-6.8194985 1.7999,0 c 0.8105,6.8e-6 1.5307,0.2754459 2.1607,0.8263181 0.725,0.6426972 1.0876,1.4895932 1.0876,2.5406906 0,0.8801418 -0.2533,1.6478888 -0.7599,2.3032428 -0.5888,0.766165 -1.4057,1.149247 -2.4504,1.149247 l -0.5509,0 0,-0.878556 0.6316,0 c 0.6459,0 1.1825,-0.294434 1.6099,-0.883306 0.3736,-0.519217 0.5604,-1.082759 0.5604,-1.6906278 0,-0.715505 -0.2248,-1.3059577 -0.6744,-1.77136 -0.4812,-0.4938855 -1.1065,-0.7408309 -1.8758,-0.7408369 l -0.6316,0 0,5.9646867 z"
         style="font-size:9.72585869px;line-height:93.00000072%;fill:#ffffff;marker:none;font-family:Bimini;-inkscape-font-specification:Bimini"
         id="path29330"
         inkscape:connector-curvature="0" />
      <path
         d="m -1011.0713,13.228156 0,-6.8194985 0.9355,0 0,6.8194985 z"
         style="font-size:9.72585869px;line-height:93.00000072%;fill:#ffffff;marker:none;font-family:Bimini;-inkscape-font-specification:Bimini"
         id="path29332"
         inkscape:connector-curvature="0" />
      <path
         d="m -1009.3094,9.7756662 c 0,-1.1365785 0.4274,-2.0277981 1.2822,-2.6736613 0.6997,-0.5382082 1.4832,-0.8073154 2.3507,-0.8073223 1.0195,6.9e-6 1.9344,0.4052507 2.7449,1.2157323 l -0.5936,0.6791005 c -0.3704,-0.3165916 -0.6823,-0.5477071 -0.9356,-0.6933473 -0.4084,-0.2311098 -0.8168,-0.3466676 -1.2252,-0.3466737 -0.8168,6.1e-6 -1.4785,0.2849431 -1.985,0.8548118 -0.4528,0.5128918 -0.6791,1.1065105 -0.6791,1.7808579 0,0.6996819 0.2263,1.3122969 0.6791,1.8378449 0.5002,0.576208 1.1555,0.864311 1.966,0.86431 0.7472,1e-6 1.3598,-0.25011 1.8379,-0.750335 0.4274,-0.443233 0.6411,-0.94029 0.6411,-1.491171 l -2.3887,0 0,-0.8595611 3.3432,0 0,0.6885981 c 0,0.959291 -0.3593,1.753949 -1.078,2.383975 -0.6744,0.588871 -1.4595,0.883306 -2.3555,0.883306 -1.0036,0 -1.8505,-0.33401 -2.5407,-1.002029 -0.7091,-0.687014 -1.0637,-1.541825 -1.0637,-2.5644358 z"
         style="font-size:9.72585869px;line-height:93.00000072%;fill:#ffffff;marker:none;font-family:Bimini;-inkscape-font-specification:Bimini"
         id="path29334"
         inkscape:connector-curvature="0" />
      <path
         d="m -1001.3454,13.228156 0,-6.8194985 0.9355,0 0,6.8194985 z"
         style="font-size:9.72585869px;line-height:93.00000072%;fill:#ffffff;marker:none;font-family:Bimini;-inkscape-font-specification:Bimini"
         id="path29336"
         inkscape:connector-curvature="0" />
      <path
         d="m -999.78303,7.2634693 0,-0.8548118 4.29306,0 0,0.8548118 -1.68588,0 0,5.9646867 -0.91655,0 0,-5.9646867 z"
         style="font-size:9.72585869px;line-height:93.00000072%;fill:#ffffff;marker:none;font-family:Bimini;-inkscape-font-specification:Bimini"
         id="path29338"
         inkscape:connector-curvature="0" />
      <path
         d="m -995.11006,13.228156 0.019,-4.5257535 c 0,-0.6996741 0.21687,-1.2758799 0.6506,-1.7286194 0.43691,-0.452727 0.97829,-0.6790936 1.62415,-0.6791005 0.70284,6.9e-6 1.2743,0.2263735 1.71437,0.6791005 0.43373,0.4590714 0.6506,1.1065115 0.65061,1.9423224 l 0,4.3120505 -0.91655,0 0,-3.096318 -2.44571,0 0,-0.8738078 2.44571,0 c -10e-6,-1.4056852 -0.46224,-2.1085297 -1.3867,-2.1085358 -0.50655,6.1e-6 -0.88647,0.1915471 -1.13975,0.5746235 -0.18679,0.2849425 -0.28019,0.611037 -0.28018,0.9782846 l 0,4.5257535 z"
         style="font-size:9.72585869px;line-height:93.00000072%;fill:#ffffff;marker:none;font-family:Bimini;-inkscape-font-specification:Bimini"
         id="path29340"
         inkscape:connector-curvature="0" />
      <path
         d="m -989.45406,6.4086575 0.89756,0 0,4.4450215 c 0,0.500225 0.0997,0.870643 0.29918,1.111255 0.22795,0.272275 0.59837,0.408411 1.11126,0.40841 l 0.8738,0 0,0.854812 -1.1065,0 c -0.4749,0 -0.91022,-0.142468 -1.30596,-0.427406 -0.51289,-0.370417 -0.76934,-0.899134 -0.76934,-1.586151 z"
         style="font-size:9.72585869px;line-height:93.00000072%;fill:#ffffff;marker:none;font-family:Bimini;-inkscape-font-specification:Bimini"
         id="path29342"
         inkscape:connector-curvature="0" />
      <path
         d="m -1017.1788,23.329855 0,-5.353532 c 0,-0.785398 0.2502,-1.42468 0.7507,-1.917847 0.4968,-0.485847 1.0959,-0.728774 1.7973,-0.728782 0.6575,8e-6 1.2292,0.204578 1.7151,0.613711 0.5625,0.478555 0.8438,1.114184 0.8438,1.906888 0,0.734266 -0.2319,1.344323 -0.6959,1.830174 -0.4201,0.442021 -0.895,0.66303 -1.4247,0.663027 l -1.5123,0 0,-0.986321 1.1507,0 c 0.5333,4e-6 0.9224,-0.195434 1.1671,-0.586314 0.1717,-0.266667 0.2576,-0.573522 0.2576,-0.920566 0,-0.379911 -0.093,-0.705031 -0.2795,-0.975362 -0.2593,-0.372604 -0.6667,-0.558909 -1.2219,-0.558916 -0.5516,7e-6 -0.9553,0.200924 -1.211,0.602752 -0.1863,0.299556 -0.2795,0.65938 -0.2795,1.079474 l 0,5.331614 z"
         style="font-size:11.22214413px;line-height:93.00000072%;fill:#333333;marker:none;font-family:Bimini;-inkscape-font-specification:Bimini"
         id="path29344"
         inkscape:connector-curvature="0" />
      <path
         d="m -1011.5897,23.329855 0.022,-5.222023 c 0,-0.807316 0.2502,-1.472169 0.7507,-1.99456 0.5041,-0.522378 1.1287,-0.78357 1.874,-0.783578 0.8109,8e-6 1.4703,0.2612 1.9781,0.783578 0.5004,0.529697 0.7507,1.276744 0.7507,2.241141 l 0,4.975442 -1.0576,0 0,-3.572674 -2.8219,0 0,-1.00824 2.8219,0 c 0,-1.621944 -0.5333,-2.432919 -1.6,-2.432926 -0.5845,7e-6 -1.0229,0.221016 -1.3151,0.663027 -0.2155,0.32878 -0.3233,0.705043 -0.3233,1.12879 l 0,5.222023 z"
         style="font-size:11.22214413px;line-height:93.00000072%;fill:#333333;marker:none;font-family:Bimini;-inkscape-font-specification:Bimini"
         id="path29346"
         inkscape:connector-curvature="0" />
      <path
         d="m -1005.2115,23.329855 0,-6.88233 c 0,-0.343379 0.087,-0.608224 0.2603,-0.794537 0.1735,-0.186297 0.3882,-0.279449 0.6439,-0.279457 0.4091,8e-6 0.7141,0.204578 0.9151,0.613711 l 2.8493,5.846693 0,-6.372731 1.05759,0 0,7.227543 c -10e-6,0.233795 -0.0749,0.409141 -0.22466,0.526038 -0.15709,0.124203 -0.34703,0.186305 -0.56983,0.186305 -0.2192,0 -0.422,-0.05845 -0.6083,-0.175346 -0.1863,-0.102285 -0.3123,-0.244754 -0.3781,-0.427406 l -2.8877,-5.978203 0,6.50972 z"
         style="font-size:11.22214413px;line-height:93.00000072%;fill:#333333;marker:none;font-family:Bimini;-inkscape-font-specification:Bimini"
         id="path29348"
         inkscape:connector-curvature="0" />
      <path
         d="m -998.23597,23.329855 0,-7.868651 2.07676,0 c 0.93517,7e-6 1.76624,0.317822 2.4932,0.953443 0.83654,0.741574 1.25481,1.718762 1.25482,2.931566 -10e-6,1.015549 -0.29225,1.901411 -0.87673,2.657588 -0.67947,0.884037 -1.62196,1.326054 -2.82746,1.326054 l -0.63563,0 0,-1.013719 0.72878,0 c 0.74522,1e-6 1.36441,-0.339731 1.85758,-1.019198 0.43105,-0.599096 0.64658,-1.249337 0.64658,-1.950725 0,-0.825582 -0.25937,-1.506874 -0.77809,-2.043876 -0.55527,-0.569868 -1.27674,-0.854805 -2.16443,-0.854812 l -0.72878,0 0,6.88233 z"
         style="font-size:11.22214413px;line-height:93.00000072%;fill:#333333;marker:none;font-family:Bimini;-inkscape-font-specification:Bimini"
         id="path29350"
         inkscape:connector-curvature="0" />
      <path
         d="m -991.62214,23.329855 0.0219,-5.222023 c 0,-0.807316 0.25023,-1.472169 0.7507,-1.99456 0.50412,-0.522378 1.12879,-0.78357 1.87401,-0.783578 0.81097,8e-6 1.47035,0.2612 1.97812,0.783578 0.50047,0.529697 0.7507,1.276744 0.7507,2.241141 l 0,4.975442 -1.05755,0 0,-3.572674 -2.82198,0 0,-1.00824 2.82198,0 c -10e-6,-1.621944 -0.53335,-2.432919 -1.60003,-2.432926 -0.58449,7e-6 -1.02286,0.221016 -1.3151,0.663027 -0.21553,0.32878 -0.32329,0.705043 -0.32329,1.12879 l 0,5.222023 z"
         style="font-size:11.22214413px;line-height:93.00000072%;fill:#333333;marker:none;font-family:Bimini;-inkscape-font-specification:Bimini"
         id="path29352"
         inkscape:connector-curvature="0" />
    </g>
    <g
       transform="matrix(1.0002197,0.00361535,0.01020296,1.0046185,419.88863,87.769084)"
       style="font-size:11.3501873px;font-style:normal;font-variant:normal;font-weight:normal;font-stretch:normal;line-height:125%;letter-spacing:0px;word-spacing:0px;fill:#000000;fill-opacity:1;stroke:none;font-family:Bauhaus-Medium;-inkscape-font-specification:Bauhaus-Medium"
       id="text3072">
      <path
         d="m -422.74258,926.67615 0,-4.81607 c -1e-5,-0.50617 -0.037,-0.91075 -0.11084,-1.21372 -0.0702,-0.30666 -0.19583,-0.593 -0.37686,-0.85902 -0.16627,-0.25124 -0.36763,-0.46368 -0.60409,-0.63734 -0.23277,-0.17365 -0.48771,-0.30296 -0.76481,-0.38795 -0.27711,-0.0887 -0.56345,-0.133 -0.85902,-0.13301 -0.39164,10e-6 -0.77405,0.0794 -1.14721,0.23831 -0.37317,0.15888 -0.69276,0.3898 -0.95878,0.69276 -0.22169,0.29189 -0.38795,0.61703 -0.49879,0.97541 -0.10715,0.35839 -0.16072,0.77774 -0.16072,1.25805 l 0,4.88258 1.06408,0 0,-4.90475 c 0,-0.61701 0.13855,-1.13981 0.41566,-1.56841 0.28079,-0.42858 0.71492,-0.64287 1.30239,-0.64288 0.40641,10e-6 0.73339,0.1127 0.98094,0.33807 0.24755,0.22169 0.4212,0.50434 0.52096,0.84794 0.10345,0.34731 0.15517,0.71863 0.15518,1.11396 l 0,0.49324 -2.9761,0 0,0.89228 2.9761,0 0,3.43055 1.04191,0"
         style="fill:#ff0000;font-family:Bauhaus-Medium;-inkscape-font-specification:Bauhaus-Medium"
         id="path3079"
         inkscape:connector-curvature="0" />
      <path
         d="m -417.90988,925.73399 -1.053,0 c -0.41012,0 -0.71678,-0.0259 -0.91998,-0.0776 -0.20322,-0.0517 -0.38056,-0.14409 -0.53204,-0.2771 -0.34361,-0.33991 -0.51542,-0.88858 -0.51542,-1.646 l 0,-4.96016 -1.06962,0 0,5.15413 c 0,0.48771 0.0554,0.89967 0.16626,1.23589 0.11454,0.33252 0.28819,0.61702 0.52096,0.85348 0.15148,0.15148 0.31959,0.2771 0.50433,0.37686 0.18843,0.0961 0.40272,0.16811 0.64288,0.21614 0.24015,0.0443 0.51911,0.0665 0.83685,0.0665 l 1.41878,0 0,-0.94216"
         style="fill:#ff0000;font-family:Bauhaus-Medium;-inkscape-font-specification:Bauhaus-Medium"
         id="path3081"
         inkscape:connector-curvature="0" />
      <path
         d="m -416.47448,926.67615 0,-5.1098 c 0,-0.41381 0.0628,-0.77219 0.18843,-1.07517 0.12562,-0.30296 0.30666,-0.53388 0.54312,-0.69276 0.23646,-0.15886 0.51911,-0.2383 0.84794,-0.23831 0.30297,10e-6 0.57637,0.0702 0.82023,0.2106 0.24385,0.14041 0.43597,0.33623 0.57638,0.58746 0.1367,0.24755 0.20505,0.52651 0.20505,0.83686 0,0.47293 -0.14594,0.85902 -0.43782,1.15829 -0.29189,0.29928 -0.67244,0.44891 -1.14167,0.44891 l -1.20263,0 0,0.93107 1.26359,0 c 0.46923,0 0.89782,-0.10714 1.28577,-0.32144 0.39163,-0.21429 0.69829,-0.51356 0.91998,-0.89782 0.22168,-0.38424 0.33252,-0.81653 0.33253,-1.29684 -1e-5,-0.50618 -0.12748,-0.95693 -0.38241,-1.35227 -0.25494,-0.39903 -0.59116,-0.70569 -1.00866,-0.91999 -0.4175,-0.21798 -0.85348,-0.32697 -1.30793,-0.32698 -0.7722,10e-6 -1.40954,0.28265 -1.91202,0.84794 -0.22907,0.2845 -0.39533,0.59485 -0.49878,0.93107 -0.10346,0.33622 -0.15518,0.74079 -0.15518,1.21371 l 0,5.06547 1.06408,0"
         style="fill:#ff0000;font-family:Bauhaus-Medium;-inkscape-font-specification:Bauhaus-Medium"
         id="path3083"
         inkscape:connector-curvature="0" />
      <path
         d="m -406.28259,926.67615 -1.03637,0 0,-3.66886 -3.44718,0 0,3.66886 -1.05853,0 0,-7.90301 1.05853,0 0,3.33633 3.44718,0 0,-3.33633 1.03637,0 0,7.90301"
         style="fill:#ff0000;font-family:Bauhaus-Medium;-inkscape-font-specification:Bauhaus-Medium"
         id="path3085"
         inkscape:connector-curvature="0" />
      <path
         d="m -400.0422,926.67615 0,-4.81607 c -1e-5,-0.50617 -0.037,-0.91075 -0.11085,-1.21372 -0.0702,-0.30666 -0.19582,-0.593 -0.37686,-0.85902 -0.16627,-0.25124 -0.36763,-0.46368 -0.60409,-0.63734 -0.23277,-0.17365 -0.4877,-0.30296 -0.7648,-0.38795 -0.27711,-0.0887 -0.56345,-0.133 -0.85903,-0.13301 -0.39164,10e-6 -0.77404,0.0794 -1.14721,0.23831 -0.37317,0.15888 -0.69276,0.3898 -0.95878,0.69276 -0.22168,0.29189 -0.38794,0.61703 -0.49878,0.97541 -0.10715,0.35839 -0.16073,0.77774 -0.16073,1.25805 l 0,4.88258 1.06408,0 0,-4.90475 c 0,-0.61701 0.13856,-1.13981 0.41566,-1.56841 0.2808,-0.42858 0.71493,-0.64287 1.30239,-0.64288 0.40642,10e-6 0.7334,0.1127 0.98095,0.33807 0.24754,0.22169 0.42119,0.50434 0.52096,0.84794 0.10344,0.34731 0.15517,0.71863 0.15517,1.11396 l 0,0.49324 -2.9761,0 0,0.89228 2.9761,0 0,3.43055 1.04192,0"
         style="fill:#ff0000;font-family:Bauhaus-Medium;-inkscape-font-specification:Bauhaus-Medium"
         id="path3087"
         inkscape:connector-curvature="0" />
    </g>
  </g>
</svg>
